<?xml version="1.0" encoding="utf-8"?>
<!-- Generator: Adobe Illustrator 18.1.0, SVG Export Plug-In . SVG Version: 6.00 Build 0)  -->
<!DOCTYPE svg PUBLIC "-//W3C//DTD SVG 1.1//EN" "http://www.w3.org/Graphics/SVG/1.1/DTD/svg11.dtd">
<svg version="1.1" id="レイヤー_1" xmlns="http://www.w3.org/2000/svg" xmlns:xlink="http://www.w3.org/1999/xlink" x="0px"
	 y="0px" viewBox="0 363.9 595.3 116.5" enable-background="new 0 363.9 595.3 116.5" xml:space="preserve">
<g id="logo.svg">
	<path id="長井市民文化会館" fill="#333333" d="M52.9,404.6h6.9c2.2,0,4.4,0.1,6.6,0.4v-7.9c-2.4,0.4-4.8,0.4-7.2,0.4H20
		v-3.8h31.2c2.2-0.1,4.6,0.1,6.8,0.4v-6.7c-2.2,0.3-4.5,0.4-6.8,0.4H20v-3.6h31.2c2.2,0,4.6,0.1,6.8,0.4V378
		c-2.2,0.3-4.5,0.4-6.8,0.4H20v-3.7h32.3c2.9-0.1,5.6,0.1,8.5,0.4v-7.7c-2.9,0.4-5.7,0.5-8.5,0.4h-33c-2.7,0.1-5.4-0.1-8.1-0.4
		c0.3,2.4,0.4,4.8,0.3,7.2v23H7.7c-2.6,0.1-5.2-0.1-7.7-0.4v7.9c2.5-0.4,5-0.5,7.5-0.4h3.9v18.2c-3.4,0.7-6.9,1.2-10.4,1.3l1.5,8.1
		c1.3-0.4,1.5-0.4,3.3-0.7c13-2.5,20.8-4.4,28.7-7l-0.1-7.2c-4.8,1.6-9.8,3-14.8,3.9v-16.6H26c2.5,5.6,6.4,10.6,11.3,14.4
		c7.2,6,15.5,9.9,26.5,12.7c0.9-3,2.2-5.7,3.9-8.4c-6.7-1.2-13.2-3.3-19.2-6.4c2.5-1.4,4.8-3.1,7.1-5c2.7-2.4,3.6-3.2,4.2-3.7
		L52.9,404.6z M52.1,404.6c-3,3.2-6.3,6.1-9.8,8.4c-3.2-2.1-5.9-5-7.7-8.4C34.5,404.6,52.1,404.6,52.1,404.6z M94.2,385.6v6.9
		c0,2.8-0.2,6.3-0.4,9h-8.4c-3,0-5.8-0.1-8.8-0.4v8.5c3-0.4,5.9-0.6,8.9-0.5h7.2c-1.9,7.2-5.4,11.2-14,16.6c2.4,2,4.6,4.2,6.4,6.8
		c4.9-3.3,7.6-5.7,10.2-9.2c3.1-4.2,5.3-9,6.1-14.2h17.8V423c0.1,3.1-0.1,6.2-0.4,9.2h9c-0.4-3-0.5-6.2-0.5-9.2v-14h7.9
		c3,0,6.1,0.1,9,0.5V401c-3,0.4-6,0.4-9,0.4h-7.9v-15.9h6c3,0,6.1,0.1,9,0.4v-8.5c-3,0.4-6,0.5-9,0.5h-6V374
		c-0.1-2.8,0.1-5.6,0.5-8.4h-9c0.4,2.8,0.5,5.5,0.4,8.4v4h-16.6v-4.5c-0.1-2.7,0.1-5.5,0.4-8.1h-9.3c0.4,1.8,0.4,3.3,0.4,7.7v4.9
		h-6.5c-3,0.1-6.1-0.1-9-0.5v8.6c3-0.4,6.1-0.5,9.1-0.4h6.5V385.6z M102.6,385.6h16.6v15.9h-16.9c0.3-3.8,0.4-5.5,0.4-7.4
		L102.6,385.6L102.6,385.6z M181.6,374h-19.2c-3.1,0-6.2-0.1-9.3-0.5v8.3c3-0.3,6-0.4,9-0.4h48.8c3-0.1,6.1,0.1,9,0.4v-8.3
		c-3,0.4-6.2,0.5-9.3,0.5h-20.8v-3.7c0-1.8,0.2-3.6,0.5-5.3H181c0.3,1.8,0.4,3.6,0.4,5.4v3.6H181.6z M181.6,389.2h-15.5
		c-3.1,0-5.2-0.1-7.6-0.3c0.2,2.1,0.3,4.2,0.3,6.3v22.2c0,2.9-0.1,5.7-0.4,8.5h9c-0.4-2.9-0.5-5.7-0.4-8.6v-20.9h14.7v27.1
		c0,3-0.2,5.9-0.5,8.9h9.3c-0.4-3-0.5-6-0.5-8.9v-27h16v19c0,1.9-0.6,2.2-3.7,2.2c-2.4-0.1-4.8-0.4-7.2-0.7c1.1,2.5,1.7,5.1,2,7.8
		c3,0.2,4.4,0.3,6.1,0.3c8.6,0,10.7-1.7,10.7-8.2v-21.5c0-2.1,0.1-4.2,0.3-6.3c-2.4,0.3-4.8,0.4-7.2,0.3h-17.1v-0.9
		c-0.1-1.8,0-3.6,0.3-5.3h-8.9c0.2,1.8,0.4,3.6,0.3,5.3L181.6,389.2L181.6,389.2z M278,390.7c3.4,0,5.5,0.1,8.1,0.2
		c-0.3-2.2-0.4-4.5-0.3-6.7v-8.4c-0.1-2.3,0-4.7,0.3-7c-2.8,0.3-5.5,0.4-8.2,0.4h-35.3c-3,0.1-5.9-0.1-8.9-0.4
		c0.2,2.6,0.4,4.9,0.4,8.9V423c-2.6,0.4-5.2,0.7-7.8,0.8l1.8,8.6c1.1-0.2,1.3-0.3,2.6-0.6c1.9-0.4,1.9-0.4,3-0.6
		c1.2-0.3,3.9-0.8,6.2-1.3c7.7-1.5,15.4-3.4,22.9-5.7v-7.7c-8.1,2.3-12.3,3.3-20.5,5v-15.6l18.4-0.2c1.7,5.6,4.4,10.9,7.9,15.7
		c5,6.4,11.1,10.6,15.9,10.6c4.7,0,7.1-4.1,8.7-14.8c-2.5-1.2-4.9-2.6-7.1-4.3c-0.9,7.5-1.6,10-2.8,10c-1.3,0-4.4-2.1-6.5-4.5
		c-3.5-3.7-6.1-8.1-7.7-12.8l13.2-0.2h1.9c2.1,0,4.4,0.2,7.2,0.4l-0.2-8.3c-3,0.4-6,0.6-8.9,0.5l-15.1,0.2c-0.5-2.5-0.9-5-1.1-7.6
		L278,390.7L278,390.7z M258,390.7c0.4,3.5,0.6,6.1,1,7.6l-16.8,0.2v-7.7L258,390.7L258,390.7z M242.2,376.2h35.7v7.5h-35.7V376.2
		L242.2,376.2z M361,383.6c3,0,6,0.1,8.9,0.4v-8.2c-3,0.4-6.2,0.5-9.3,0.5h-20.5V371c0-1.9,0.2-3.8,0.5-5.5h-9.3
		c0.4,1.9,0.5,3.8,0.5,5.6v5.2h-19.6c-3,0-6.2-0.1-9.2-0.5v8.2c3-0.3,6-0.4,8.9-0.4h3.5c2.5,7.4,3.8,10.6,6.6,15.3
		c2.5,4.2,5.4,8.1,8.7,11.6c-7.6,6.2-15.7,10-28.9,13.5c2,2.3,3.6,5,4.7,7.8c5.4-1.7,10.6-3.8,15.7-6.3c5.1-2.6,9.9-5.8,14.4-9.5
		c8.1,6.9,17.2,11.6,29.6,15.7c1.2-3.1,2.9-6,5.1-8.5c-11.8-2.6-20.7-6.5-28.8-12.8c3.4-3.8,6.3-7.9,8.7-12.3
		c2.7-4.9,3.8-7.9,5.7-14.7L361,383.6L361,383.6z M348.5,383.6c-1.2,4.3-2.9,8.5-5.1,12.3c-1.9,3.3-4.1,6.4-6.7,9.2
		c-2.7-2.8-5.1-5.8-7.1-9.1c-2.4-3.9-4.3-8.1-5.6-12.4H348.5L348.5,383.6z M415.6,399.8c9-4.6,17.4-10.3,24.9-17.1
		c0.7-0.6,1.1-0.9,1.6-1.3l-6.4-6.4c-4,5.3-11.6,11.2-20.1,15.7v-16.1c0-3,0.1-5.8,0.4-8.8h-9.2c0.4,2.9,0.4,5.8,0.4,8.8v48
		c0,6.6,2.2,7.9,14.1,7.9c11.9,0,15.9-0.8,18.3-3.6c1.8-2.1,2.8-7,3.4-16c-2.8-0.6-5.5-1.6-8-2.9c-0.4,8.9-0.8,11.6-2.1,13.3
		c-1,1.2-3.6,1.6-10.2,1.6c-5.9,0-7.2-0.4-7.2-2.4L415.6,399.8L415.6,399.8z M386.4,422.7c0,3.1-0.2,6.4-0.5,9.5h9
		c-0.3-3-0.4-6.4-0.4-9.3v-39.2c2-4.1,3.8-8.3,5.3-12.7c0.6-1.8,1-2.6,1.6-4l-8.5-2.4c-0.8,4.9-3.5,11.6-7.4,18.1
		c-2.9,4.7-6.4,9.1-10.3,13c1.7,2.7,3,5.5,3.9,8.6c2.8-3,5.3-6.1,7.6-9.5c-0.2,4.9-0.2,5.6-0.2,8.1L386.4,422.7L386.4,422.7z
		 M465.7,394.5c2.1-0.2,4.2-0.3,6.4-0.3h24.6c2.2,0,4.4,0.1,6.6,0.3v-5.7c4,2.6,8.2,4.8,12.6,6.6c1-2.9,2.3-5.6,4-8.1
		c-6.7-2.4-13.1-5.7-18.9-9.8c-4.9-3.2-9.1-7.2-12.4-12.1h-8.8c-3.1,4.7-7.1,8.9-11.6,12.3c-5.6,4.3-10.6,7-18.4,10.1
		c1.7,2.3,3.1,4.7,4.3,7.4c4.1-1.7,8.1-3.8,11.8-6.3L465.7,394.5L465.7,394.5z M472.2,386.7c-1.3,0-1.8,0-3-0.1
		c6.8-4.7,11.4-8.9,15.3-14.1c4.4,5.7,8.6,9.6,15.4,14.1c-1.4,0.1-2.1,0.1-3.2,0.1H472.2L472.2,386.7z M472.9,407.7
		c-2.1,5.1-4.7,10-7.9,14.6c-3.8,0.2-6,0.3-6.4,0.3c-1.1,0-2.2-0.1-4.3-0.2l1.2,8.9c3.1-0.5,6.4-0.8,9.5-1c3-0.2,17.5-1.5,24.8-2.1
		c2.7-0.3,7.2-0.8,13.2-1.6c1.3,1.8,2,2.8,4.4,6.4l7.1-4.6c-5.1-7-10.8-13.5-17-19.4l-7.2,3.2c4.1,4.2,5.4,5.5,7.7,8.1
		c-10.3,1.1-10.3,1.1-23.4,1.8c3-4.5,5.5-9.2,7.7-14.1h25.3c2.9,0,5.7,0.1,8.6,0.4V400c-2.9,0.4-5.7,0.4-8.6,0.4h-45.8
		c-2.9,0-5.8-0.1-8.7-0.4v8.4c2.9-0.4,5.8-0.4,8.7-0.4L472.9,407.7L472.9,407.7z M560.6,427c-2.3-5.6-5.2-11-8.5-16.1l-6.2,2.6
		c1.2,1.7,2.2,3.6,3.1,5.5c-3,1-4.2,1.3-8.8,2.4v-11.5H553c1.4,0,2.9,0.1,4.3,0.2c-0.2-1.5-0.2-3.1-0.2-5.9v-13.7
		c-0.1-2.1,0-4.1,0.2-6.2c-2,0.3-3.8,0.4-5.8,0.3h-2.9v-2.3c0-1.3,0.1-2.5,0.3-3.8h-7.3c0.2,1.2,0.4,2.4,0.3,3.7v2.4H538
		c-1.9,0-2.4,0-3.8-0.1c4.4-3.5,8.2-7.6,11.5-12.1c2.8,4,6.2,7.6,10,10.6c0.7-2.1,1.9-3.9,3.2-5.5v4.5c0,1.5-0.1,3-0.2,4.6h3.2
		c0.1,1.3,0.1,1.6,0.1,2.8v37.1c0,2.1-0.1,4.2-0.4,6.3h8.1V429h15.7v3.5h7.9c-0.3-2.1-0.4-4.3-0.3-6.4v-12.5c-0.1-1.9,0-3.8,0.2-5.7
		c-1.5,0.2-3.1,0.2-5.8,0.2h-17.7v-5.3H585c2.1,0,3.7,0.1,5.5,0.2c-0.2-1.9-0.3-3.7-0.2-5.5v-10.6h5.1c-0.2-1.6-0.3-3.3-0.2-4.9
		v-5.5c0-1.7,0.1-3.4,0.2-5.1c-2.4,0.3-4.7,0.4-7.2,0.4h-8.1v-1.2c-0.1-1.7,0.1-3.4,0.4-5.1h-8.6c0.3,1.7,0.4,3.4,0.4,5.1v1.3h-7.4
		c-3,0-4.5-0.1-6.1-0.2c0.2,1.3,0.2,2.1,0.2,4.5c-4.5-3.3-8-7.1-9.8-10.5h-7.4c-1.4,2.7-3.3,5.2-5.5,7.2c-2.7,2.7-5.7,5.1-9,7.1
		c1.3,2.6,2.2,5.4,2.7,8.2c1.4-1,2-1.4,2.9-2.1c0.1,1.4,0.2,2.4,0.2,4.5v32.5c-1.6,0.3-3.1,0.5-4.7,0.6l1.8,8
		c1.9-0.6,3.8-1.2,5.7-1.5c5.5-1.3,11-2.9,16.4-4.7c0.6,1.4,1.2,3,2.1,5.5L560.6,427z M587.7,383.5c-1.3,0.1-1.9,0.1-3.1,0.1h-18.1
		v-5.1h21.2L587.7,383.5L587.7,383.5z M569.6,389.8h13.1v6.5h-13.1V389.8z M569.6,414.7h15.7v7.5h-15.7V414.7L569.6,414.7z
		 M540.2,394.3v-3.8h9.6v3.8H540.2L540.2,394.3z M540.2,399.8h9.6v4.1h-9.6V399.8L540.2,399.8z"/>
	<path id="Nasai_Civic_Hall" display="none" fill="#333333" d="M20.7,458.5c-0.1-0.1-0.2-0.1-0.3-0.1c0,0-0.1,0-0.3,0h-0.4h-0.4
		c-0.2,0-0.3,0-0.4,0s-0.2,0-0.4,0h-0.4h-0.4c-0.1,0-0.2,0-0.3,0s-0.2,0-0.3,0.1c0,0.1-0.1,0.2,0,0.4c0,0.7,0.1,1.6,0.1,2.6
		c0.1,1,0.1,2,0.1,3c0,1.1,0.1,2.1,0.1,3.2c0,1.1,0,2.1,0,3c0,0.3,0,0.4,0,0.6c0,0.1,0,0.2-0.1,0.3c-0.1,0-0.2-0.1-0.2-0.2
		c-0.1-0.1-0.2-0.3-0.3-0.4c-0.5-0.7-1.3-1.6-2.1-2.7s-1.6-2.1-2.5-3.3c-0.9-1.2-1.7-2.3-2.5-3.4c-0.8-1.1-1.5-2.1-2.2-3
		c-0.1-0.1-0.2-0.3-0.3-0.4c-0.1,0-0.1-0.1-0.2-0.1c-0.2,0-0.4,0-0.6,0.1c-0.3,0.1-0.5,0.1-0.7,0.1s-0.4,0-0.7,0s-0.4,0-0.6,0
		c-0.1,0-0.2,0-0.3,0.1c-0.1,0.1-0.1,0.2,0,0.4c0,0.1,0,0.3,0,0.6c0,0.4,0,0.8,0.1,1.3c0,0.5,0,1.2,0.1,1.8c0,0.6,0,1.3,0.1,2
		c0,0.6,0,1.3,0,1.9c0,0.5,0,1.1,0,1.3c0,0.4,0,0.8,0,1.3c0,0.5,0,1.2,0,1.7c0,0.6,0,1.3-0.1,1.9c-0.1,0.6-0.1,1.3-0.1,1.7
		s0,1-0.1,1.3c0,0.4,0,0.5,0,0.6s0,0.3,0,0.4c0.1,0.1,0.2,0.1,0.3,0.1s0.2,0,0.3,0h0.4h0.4c0.2,0,0.3,0,0.3,0c0.1,0,0.2,0,0.3,0h0.4
		c0.2,0,0.3,0,0.4,0s0.2,0,0.3,0s0.2,0,0.2-0.1c0.1-0.1,0.1-0.3,0.1-0.4c0-1.1,0-2.1-0.1-3.2s0-2.2,0-3.3c0-1.1,0-2.1,0-3
		c0-1,0-1.9,0-2.6c0-0.2,0-0.4,0-0.4l0.1-0.1c0.3,0.3,0.6,0.7,1.1,1.3c0.5,0.6,1.1,1.3,1.7,2.1c0.6,0.8,1.3,1.7,2,2.6s1.3,1.8,2,2.7
		c0.6,0.9,1.3,1.6,1.7,2.3c0.4,0.7,0.9,1.3,1.2,1.6c0.1,0.1,0.2,0.2,0.3,0.4c0.1,0.1,0.2,0.1,0.3,0.1c0.2,0,0.4,0,0.6,0
		c0.2,0,0.5,0,0.7,0c0.2,0,0.4,0,0.6,0c0.2,0,0.4,0,0.5,0s0.2,0,0.3-0.1c0.1-0.1,0.1-0.3,0-0.4c0-1.7-0.1-3.3-0.1-4.7v-3.9
		c0-0.4,0-0.9,0-1.5c0-0.6,0-1.3,0-1.9c0-0.6,0-1.3,0.1-2c0.1-0.6,0-1.3,0-1.8c0-0.5,0-1,0-1.3c0-0.4,0-0.5,0-0.6
		C20.7,458.8,20.7,458.6,20.7,458.5z M39,464.8l-0.5-0.1c-0.2-0.1-0.4-0.1-0.6-0.1c-0.1,0-0.2,0-0.3-0.1s-0.3,0-0.4-0.1
		c-0.1,0-0.3,0-0.4-0.1c-0.1,0-0.2,0-0.2,0c-0.1,0.1-0.1,0.1-0.1,0.2c-0.1,0.1-0.1,0.3-0.1,0.4c0,0.2-0.1,0.3-0.1,0.4
		s-0.1,0.3-0.1,0.4c0,0.3-0.1,0.4-0.2,0.3c-0.4-0.6-1.1-1.2-1.7-1.5c-0.7-0.4-1.6-0.6-2.5-0.6c-0.8,0-1.6,0.1-2.4,0.4
		c-0.7,0.3-1.3,0.7-2,1.3c-0.6,0.7-1.2,1.4-1.4,2.3c-0.4,0.9-0.5,1.9-0.5,2.8c0,0.8,0.2,1.7,0.4,2.5c0.3,0.8,0.7,1.5,1.3,2.1
		c0.5,0.5,1.2,1,1.8,1.4c0.7,0.4,1.6,0.5,2.4,0.5c0.4,0,0.8-0.1,1.3-0.2c0.4-0.1,0.7-0.3,1.1-0.4c0.4-0.2,0.6-0.4,0.9-0.6
		c0.3-0.2,0.5-0.4,0.8-0.7c0.1,0,0.2-0.1,0.3-0.1s0.2,0.1,0.2,0.2c0,0.3,0.1,0.5,0.1,0.8c0.1,0.3,0.1,0.5,0.2,0.8
		c0,0.1,0.2,0.2,0.4,0.1c0.1,0,0.3,0,0.5-0.1c0.3-0.1,0.4,0,0.5-0.1c0.2,0,0.4,0,0.5,0c0.1,0,0.4,0,0.4,0s0.3,0,0.3-0.2
		c0.1-0.2,0.1-0.3,0-0.4c0-0.3-0.1-0.5-0.1-1c0-0.4-0.1-0.9-0.1-1.4c0-0.5-0.1-1.1-0.1-1.7c0-0.6,0-1.2,0-1.7c0-0.4,0-0.8,0-1.3
		c0-0.4,0.1-1,0.1-1.4c0.1-0.4,0.1-0.9,0.2-1.3s0.1-0.8,0.2-1.2C39.3,465,39.2,464.9,39,464.8L39,464.8L39,464.8z M35.5,472.1
		c-0.2,0.4-0.4,0.9-0.8,1.3c-0.4,0.4-0.7,0.6-1.2,0.9c-0.4,0.2-0.9,0.3-1.3,0.3c-0.4,0-1-0.1-1.4-0.3s-0.8-0.5-1.2-0.9
		c-0.4-0.4-0.6-0.8-0.8-1.3c-0.4-1-0.4-2.1,0-3.1c0.2-0.4,0.4-0.9,0.8-1.3c0.4-0.4,0.7-0.6,1.2-0.9c0.4-0.2,0.9-0.4,1.4-0.3
		c0.4,0,1,0.1,1.4,0.3c0.4,0.2,0.8,0.5,1.2,0.9c0.4,0.4,0.6,0.8,0.7,1.3c0.2,0.5,0.3,1.1,0.3,1.6C35.9,471.1,35.8,471.6,35.5,472.1
		L35.5,472.1z M70.7,464.8l-0.5-0.1c-0.2-0.1-0.4-0.1-0.6-0.1c-0.1,0-0.2,0-0.3-0.1s-0.3,0-0.4-0.1c-0.1,0-0.3,0-0.4-0.1
		c-0.1,0-0.2,0-0.2,0c-0.1,0.1-0.1,0.1-0.1,0.2c-0.1,0.1-0.1,0.3-0.1,0.4c0,0.2-0.1,0.3-0.1,0.4s-0.1,0.3-0.1,0.4
		c0,0.3-0.1,0.4-0.2,0.3c-0.4-0.6-1.1-1.2-1.7-1.5c-0.7-0.4-1.6-0.6-2.5-0.6c-0.8,0-1.6,0.1-2.4,0.4c-0.7,0.3-1.3,0.7-2,1.3
		c-0.6,0.7-1.2,1.4-1.4,2.3c-0.4,0.9-0.5,1.9-0.5,2.8c0,0.8,0.2,1.7,0.4,2.5c0.3,0.8,0.7,1.5,1.3,2.1c0.5,0.5,1.2,1,1.8,1.4
		c0.7,0.4,1.6,0.5,2.4,0.5c0.4,0,0.8-0.1,1.3-0.2c0.4-0.1,0.7-0.3,1.1-0.4c0.4-0.2,0.6-0.4,0.9-0.6c0.3-0.3,0.5-0.4,0.8-0.7
		c0.1,0,0.2-0.1,0.3-0.1c0.1,0,0.2,0.1,0.2,0.2c0,0.3,0.1,0.5,0.1,0.8c0.1,0.3,0.1,0.5,0.2,0.8c0,0.1,0.2,0.2,0.4,0.1
		c0.1,0,0.3,0,0.5-0.1c0.3-0.1,0.4,0,0.5-0.1c0.2,0,0.4,0,0.5,0c0.1,0,0.4,0,0.4,0c0.1,0,0.3,0,0.3-0.2c0.1-0.2,0.1-0.3,0-0.4
		c0-0.3-0.1-0.5-0.1-1c0-0.4-0.1-0.9-0.1-1.4c0-0.5-0.1-1.1-0.1-1.7c0-0.6,0-1.2,0-1.7c0-0.4,0-0.8,0-1.3c0-0.4,0.1-1,0.1-1.4
		c0.1-0.4,0.1-0.9,0.2-1.3s0.1-0.8,0.2-1.2C70.9,465,70.9,464.9,70.7,464.8L70.7,464.8L70.7,464.8z M67.2,472.1
		c-0.2,0.4-0.4,0.9-0.8,1.3c-0.4,0.4-0.7,0.6-1.2,0.9c-0.4,0.2-0.9,0.3-1.3,0.3c-0.4,0-1-0.1-1.4-0.3c-0.4-0.2-0.8-0.5-1.2-0.9
		c-0.4-0.4-0.6-0.8-0.8-1.3c-0.4-1-0.4-2.1,0-3.1c0.2-0.4,0.4-0.9,0.8-1.3c0.4-0.4,0.7-0.6,1.2-0.9c0.4-0.2,0.9-0.4,1.4-0.3
		c0.4,0,1,0.1,1.4,0.3c0.4,0.2,0.8,0.5,1.2,0.9c0.4,0.4,0.6,0.8,0.7,1.3c0.2,0.5,0.3,1.1,0.3,1.6C67.5,471.1,67.4,471.6,67.2,472.1
		L67.2,472.1z M78.8,460c-0.4-0.4-0.8-0.5-1.3-0.4c-0.4,0-1,0.2-1.3,0.4c-0.4,0.3-0.5,0.7-0.5,1.2c0,0.5,0.2,0.9,0.4,1.2
		c0.4,0.4,0.9,0.5,1.3,0.4c0.5,0.1,1.1-0.1,1.4-0.4c0.3-0.4,0.4-0.7,0.4-1.2C79.3,460.8,79.1,460.3,78.8,460L78.8,460z M79.1,464.6
		c-0.1-0.1-0.1-0.1-0.2-0.1c-0.2,0-0.4,0-0.6,0.1c-0.3,0-0.5,0.1-0.8,0.1c-0.3,0-0.5,0-0.8-0.1c-0.2,0-0.4-0.1-0.6-0.1
		s-0.3,0-0.3,0.1s0,0.2,0,0.3c0,0.3,0,0.6,0.1,1.2c0,0.5,0.1,1.2,0.1,1.8c0,0.6,0.1,1.3,0.1,1.8c0,0.5,0,1,0,1.3s0,0.7,0,1.3
		c0,0.5,0,1.2,0,1.8s0,1.2,0,1.6v1c0,0.1,0,0.2,0.1,0.3c0.1,0,0.1,0.1,0.2,0.1c0.1,0,0.3,0,0.5,0c0.3,0,0.5,0,0.7,0s0.4,0,0.7,0
		c0.3,0,0.4,0,0.5,0c0.2,0,0.3-0.1,0.3-0.3l0,0c0-0.2,0-0.5,0-1c0-0.5,0-1.1,0-1.7c0-0.6,0-1.2,0-1.8c0-0.6,0-1,0-1.3s0-0.7,0-1.3
		c0-0.5,0-1.2,0.1-1.8c0.1-0.6,0.1-1.3,0.1-1.8c0-0.5,0.1-1,0.1-1.2C79.2,464.8,79.2,464.7,79.1,464.6L79.1,464.6z M108.3,473.3
		c-0.2-0.2-0.3-0.4-0.4-0.5c-0.1-0.1-0.3-0.4-0.4-0.5c-0.1-0.2-0.2-0.3-0.3-0.4c0-0.1-0.2-0.2-0.3-0.1c-0.1,0-0.2,0.1-0.2,0.2
		c-0.6,0.6-1.3,1.2-2,1.6c-0.8,0.4-1.7,0.7-2.6,0.7c-0.7,0-1.4-0.2-2.1-0.4c-0.6-0.3-1.3-0.7-1.7-1.3c-0.5-0.6-0.9-1.3-1.2-2.1
		c-0.3-0.9-0.4-1.9-0.4-2.9c0-0.9,0.1-1.8,0.4-2.7c0.3-0.7,0.6-1.4,1.1-2.1c0.4-0.5,1.1-1,1.7-1.3c0.7-0.4,1.4-0.4,2.2-0.4
		c0.9,0,1.9,0.3,2.7,0.7c0.4,0.2,0.6,0.4,1,0.7c0.3,0.3,0.5,0.5,0.9,0.9c0.1,0.1,0.2,0.1,0.3,0.2c0.1,0,0.2,0,0.3-0.1
		c0.1-0.2,0.3-0.3,0.3-0.4c0.1-0.2,0.2-0.4,0.4-0.5c0.1-0.2,0.2-0.4,0.4-0.5c0.1-0.2,0.2-0.4,0.3-0.5c0.1-0.1,0.1-0.2,0.1-0.3
		c0-0.2-0.1-0.4-0.2-0.4c-0.3-0.4-0.6-0.7-1-1c-0.4-0.4-0.8-0.6-1.3-0.9c-0.5-0.3-1.1-0.4-1.7-0.6c-0.7-0.2-1.5-0.3-2.2-0.3
		c-2.3,0-4.6,1-6.2,2.7c-0.8,0.9-1.4,1.9-1.8,3c-0.9,2.6-0.9,5.4,0,7.9c0.4,1.2,1,2.1,1.8,3c0.7,0.8,1.7,1.5,2.7,2
		c1.9,0.8,3.9,0.9,5.8,0.4c0.6-0.2,1.3-0.4,1.8-0.7c0.4-0.3,0.9-0.6,1.3-1c0.4-0.4,0.6-0.6,0.9-1c0.3-0.3,0.3-0.5,0.2-0.6
		C108.5,473.6,108.4,473.5,108.3,473.3z M115.8,460c-0.4-0.4-0.8-0.5-1.3-0.4c-0.4,0-1,0.2-1.3,0.4s-0.5,0.7-0.5,1.2
		c0,0.5,0.2,0.9,0.4,1.2c0.4,0.4,0.9,0.5,1.3,0.4c0.5,0.1,1.1-0.1,1.4-0.4c0.3-0.4,0.4-0.7,0.4-1.2
		C116.4,460.8,116.2,460.3,115.8,460L115.8,460z M116.3,464.6c-0.1-0.1-0.1-0.1-0.2-0.1c-0.2,0-0.4,0-0.6,0.1
		c-0.3,0-0.5,0.1-0.8,0.1c-0.3,0-0.5,0-0.8-0.1c-0.2,0-0.4-0.1-0.6-0.1c-0.2,0-0.3,0-0.3,0.1s0,0.2,0,0.3c0,0.3,0,0.6,0.1,1.2
		c0.1,0.5,0.1,1.2,0.1,1.8c0,0.6,0.1,1.3,0.1,1.8c0,0.5,0,1,0,1.3s0,0.7,0,1.3s0,1.2,0,1.8s0,1.2,0,1.6v1c0,0.1,0,0.2,0.1,0.3
		c0.1,0,0.1,0.1,0.2,0.1c0.1,0,0.3,0,0.5,0c0.3,0,0.5,0,0.7,0s0.4,0,0.7,0c0.3,0,0.4,0,0.5,0c0.2,0,0.3-0.1,0.3-0.3l0,0
		c0-0.2,0-0.5,0-1c0-0.5,0-1.1,0-1.7c0-0.6,0-1.2,0-1.8c0-0.6,0-1,0-1.3s0-0.7,0-1.3c0-0.5,0-1.2,0.1-1.8c0-0.6,0.1-1.3,0.1-1.8
		c0-0.5,0.1-1,0.1-1.2C116.3,464.8,116.3,464.7,116.3,464.6L116.3,464.6z M132.8,467c0-0.4,0-0.6,0-1c0-0.4,0-0.6-0.1-0.8
		c0-0.3-0.1-0.4-0.1-0.5s-0.1-0.2-0.1-0.2c-0.1,0-0.2,0-0.2,0c-0.1,0-0.3,0-0.5,0c-0.3,0-0.4,0-0.6,0H131c-0.1,0-0.3,0-0.4,0
		s-0.3,0-0.4,0H130c-0.2,0-0.2,0.1-0.2,0.4c0,0.1,0,0.3,0,0.4s0,0.4,0.1,0.7s0,0.5,0.1,0.7c0.1,0.2,0,0.4,0,0.5c0,0.3,0,0.6,0,1.1
		c0,0.4,0,0.8-0.1,1.2c-0.1,0.4-0.3,0.7-0.4,1.1c-0.3,0.4-0.5,1-0.9,1.4c-0.4,0.4-0.6,0.9-0.9,1.3c-0.1,0.2-0.3,0.4-0.4,0.5
		c-0.1-0.1-0.2-0.2-0.3-0.3c-0.2-0.2-0.4-0.4-0.5-0.6c-0.1-0.2-0.4-0.5-0.7-0.9c-0.3-0.4-0.4-0.6-0.6-1s-0.4-0.6-0.5-0.9
		c-0.1-0.2-0.2-0.4-0.3-0.7c0-0.3-0.1-0.6-0.1-1.1c0-0.4,0-0.8,0-1.1c0-0.3,0-0.7,0-1.2c0-0.4,0-0.9,0.1-1.3c0-0.1,0-0.2,0-0.2
		c-0.1-0.1-0.1-0.1-0.2-0.1h-0.3c-0.1,0-0.3,0-0.4,0c-0.1,0-0.3,0-0.4,0h-0.3c-0.1,0-0.2,0-0.3,0c-0.1,0-0.3,0-0.4,0
		c-0.1,0-0.3,0-0.4,0c-0.1,0-0.2,0-0.3,0c-0.1,0-0.2,0-0.2,0c-0.1,0.1-0.1,0.2-0.1,0.3c0,0.1,0,0.3,0,0.5c0,0.2,0,0.5,0,0.9
		c0,0.4,0,0.6,0,1c0,0.4,0,0.6,0,0.9c0,0.3,0,0.5,0,0.8c0,0.3,0,0.5,0.1,0.8c0.1,0.3,0.1,0.4,0.1,0.6c0,0.1,0.1,0.3,0.1,0.4
		c0.1,0.2,0.2,0.3,0.2,0.4c0.1,0.2,0.3,0.4,0.4,0.8c0.2,0.3,0.4,0.6,0.6,1c0.3,0.4,0.5,0.7,0.7,1.1c0.4,0.6,1,1.3,1.3,1.8
		c0.4,0.5,0.7,0.9,0.9,1.1c0.1,0.1,0.2,0.3,0.4,0.3c0.2,0.1,0.4,0.1,0.5,0.1c0.3,0,0.4,0,0.6,0c0.1,0,0.3,0,0.6,0
		c0.2,0,0.4,0,0.5-0.1c0.1,0,0.1-0.1,0.2-0.1c0.1,0,0.1-0.1,0.2-0.2c0.3-0.4,0.5-0.7,0.8-1.2s0.7-0.9,1.2-1.5
		c0.3-0.4,0.5-0.7,0.8-1.1c0.3-0.4,0.4-0.8,0.7-1.2c0.2-0.4,0.4-0.6,0.5-0.9c0.1-0.2,0.2-0.3,0.3-0.4c0-0.1,0-0.3,0.1-0.4
		c0-0.2,0-0.4,0-0.6c0-0.2,0-0.4,0-0.7V468C132.8,467.7,132.8,467.4,132.8,467L132.8,467z M140.6,460c-0.4-0.4-0.8-0.5-1.3-0.4
		c-0.4,0-1,0.2-1.3,0.4s-0.5,0.7-0.5,1.2c0,0.5,0.2,0.9,0.4,1.2c0.4,0.4,0.9,0.5,1.3,0.4c0.5,0.1,1.1-0.1,1.4-0.4
		c0.3-0.4,0.4-0.7,0.4-1.2C141.2,460.8,140.9,460.3,140.6,460L140.6,460z M141,464.6c-0.1-0.1-0.1-0.1-0.2-0.1c-0.2,0-0.4,0-0.6,0.1
		c-0.3,0-0.5,0.1-0.8,0.1s-0.5,0-0.8-0.1c-0.2,0-0.4-0.1-0.6-0.1c-0.2,0-0.3,0-0.3,0.1s0,0.2,0,0.3c0,0.3,0,0.6,0.1,1.2
		c0,0.5,0.1,1.2,0.1,1.8c0,0.6,0.1,1.3,0.1,1.8c0,0.5,0,1,0,1.3s0,0.7,0,1.3c0,0.5,0,1.2,0,1.8s0,1.2,0,1.6v1c0,0.1,0,0.2,0.1,0.3
		c0.1,0,0.1,0.1,0.2,0.1c0.1,0,0.3,0,0.5,0c0.2,0,0.5,0,0.7,0c0.2,0,0.4,0,0.7,0c0.3,0,0.4,0,0.5,0c0.2,0,0.3-0.1,0.3-0.3l0,0
		c0-0.2,0-0.5,0-1c0-0.5,0-1.1,0-1.7c0-0.6,0-1.2,0-1.8c0-0.6,0-1,0-1.3s0-0.7,0-1.3c0-0.5,0-1.2,0.1-1.8c0-0.6,0.1-1.3,0.1-1.8
		c0-0.5,0.1-1,0.1-1.2C141,464.8,141,464.7,141,464.6L141,464.6z M155.6,464.9c-0.1-0.1-0.2-0.1-0.3-0.2c-0.4-0.3-1-0.4-1.4-0.6
		c-0.6-0.2-1.3-0.3-2-0.3c-0.9,0-1.7,0.2-2.5,0.5c-1.6,0.7-2.8,2-3.4,3.6c-0.4,0.8-0.5,1.7-0.4,2.7c0,0.9,0.2,1.9,0.5,2.7
		c0.4,0.8,0.8,1.5,1.4,2.1c0.6,0.6,1.3,1.1,2.1,1.4c0.8,0.4,1.6,0.5,2.5,0.5c0.6,0,1.3-0.1,1.9-0.3c0.4-0.1,0.8-0.3,1.3-0.5
		c0.1-0.1,0.3-0.1,0.4-0.2s0.1-0.2,0-0.3c0-0.1,0-0.3-0.1-0.5c0-0.2-0.1-0.4-0.1-0.5c-0.1-0.2-0.1-0.4-0.1-0.5
		c0-0.3-0.1-0.4-0.1-0.5c-0.1-0.2-0.2-0.3-0.4-0.1c-0.3,0.2-0.5,0.4-0.9,0.5c-0.4,0.2-1,0.3-1.5,0.3c-0.4,0-0.9-0.1-1.3-0.3
		c-0.4-0.2-0.9-0.4-1.3-0.8c-0.4-0.4-0.7-0.8-0.9-1.3c-0.3-0.5-0.4-1.2-0.4-1.7c0-0.6,0.1-1.2,0.4-1.7c0.2-0.4,0.5-0.9,0.9-1.3
		c0.4-0.4,0.8-0.6,1.3-0.8c0.4-0.2,0.9-0.3,1.3-0.3c0.8,0,1.7,0.3,2.3,0.7c0.2,0.1,0.3,0.1,0.4-0.1c0.1-0.2,0.1-0.3,0.2-0.4
		c0.1-0.2,0.1-0.4,0.2-0.5c0-0.1,0.1-0.3,0.2-0.5c0.1-0.2,0.1-0.4,0.1-0.5C155.6,465.1,155.6,465,155.6,464.9L155.6,464.9z
		 M186.1,475.9c0-0.4,0-0.8-0.1-1.3c-0.1-0.4,0-1.1-0.1-1.7c0-0.6-0.1-1.3-0.1-1.9s0-1.2,0-1.8c0-0.5,0-1,0-1.3c0-0.4,0-0.8,0-1.3
		c0-0.5,0-1.2,0-1.9c0-0.7,0-1.3,0.1-2c0.1-0.6,0-1.3,0.1-1.8c0.1-0.5,0-1,0.1-1.3c0.1-0.3,0-0.5,0-0.6s0-0.3,0-0.4
		c-0.1-0.1-0.2-0.1-0.3-0.1c0,0-0.1,0-0.3,0h-0.4h-0.4c-0.2,0-0.3,0-0.4,0s-0.2,0-0.4,0h-0.4c-0.2,0-0.3,0-0.4,0c-0.2,0-0.2,0-0.3,0
		c-0.1,0-0.2,0-0.3,0.1c0,0.1-0.1,0.3,0,0.4c0,0.1,0,0.3,0,0.5c0,0.3,0,0.7,0,1.2c0,0.4,0,1,0,1.5c0,0.5,0,1.1,0,1.5s0,0.9,0,1.2
		c0,0.3,0,0.5,0,0.5c0,0.1,0,0.3,0,0.4s-0.2,0.2-0.3,0.2c0,0-0.2,0-0.4,0c-0.3,0-0.5,0-0.9,0s-0.7,0-1.1,0c-0.4,0-0.7,0-1.1,0
		s-0.6,0-0.9,0c-0.3,0-0.4,0-0.4,0c-0.1,0-0.4,0-0.8,0s-1,0-1.5,0s-1.1,0-1.5,0s-0.7,0-0.8,0c-0.1,0-0.2-0.1-0.3-0.2
		c0-0.1-0.1-0.3,0-0.4c0-0.1,0-0.3,0-0.5c0-0.3,0-0.7,0-1.2s0-1,0-1.5c0-0.5,0-1.1,0-1.5c0-0.4,0-0.8,0-1.2s0-0.5,0-0.5
		c0-0.1,0-0.3,0-0.4c-0.1-0.1-0.2-0.1-0.3-0.1c0,0-0.1,0-0.3,0h-0.4H171c-0.2,0-0.3,0-0.4,0s-0.2,0-0.4,0h-0.4c-0.2,0-0.3,0-0.4,0
		s-0.2,0-0.3,0s-0.2,0-0.3,0.1c0,0.1-0.1,0.3,0,0.4c0,0.1,0,0.3,0,0.6c0,0.4,0,0.8,0.1,1.3c0,0.5,0,1.2,0.1,1.8
		c0.1,0.6,0.1,1.3,0.1,2c0,0.6,0,1.3,0,1.9c0,0.6,0,1.1,0,1.3c0,0.4,0,0.8,0,1.3s0,1.2,0,1.7c0,0.6,0,1.3-0.1,1.9
		c0,0.6-0.1,1.2-0.1,1.7c0,0.5,0,1-0.1,1.3c0,0.4,0,0.5,0,0.5c0,0.1,0,0.3,0,0.4c0.1,0.1,0.2,0.1,0.3,0.1c0,0,0.1,0,0.3,0h0.4h0.4
		c0.2,0,0.3,0,0.4,0c0.1,0,0.2,0,0.4,0h0.4h0.4c0.2,0,0.3,0,0.3,0c0.1,0,0.2,0,0.3-0.1c0.1-0.1,0.1-0.3,0.1-0.4s0-0.3,0-0.6
		c0-0.4,0-0.8,0-1.3c0-0.4,0-1.1,0-1.6s0-1.1,0-1.6c0-0.5,0-0.9,0-1.3c0-0.4,0-0.5,0-0.6c0-0.4,0.1-0.5,0.3-0.6c0,0,0.2,0,0.4,0
		c0.2,0,0.5,0,0.9,0s0.7,0,1.1,0c0.4,0,0.7,0,1.1,0s0.6,0,0.8,0h0.3h0.6c0.4,0,1,0,1.5,0s1.1,0,1.6,0c0.4,0,0.7,0,0.8,0
		c0.1,0,0.2,0.1,0.3,0.2c0,0.2,0,0.3,0,0.4s0,0.3,0,0.6c0,0.4,0,0.8,0,1.3c0,0.5,0,1.1,0,1.6s0,1.1,0,1.6c0,0.5,0,0.9,0,1.3
		c0,0.4,0,0.5,0,0.6s0,0.3,0,0.4c0.1,0.1,0.2,0.1,0.3,0.1c0.1,0,0.2,0,0.3,0c0.1,0,0.3,0,0.4,0h0.4c0.2,0,0.3,0,0.4,0s0.2,0,0.3,0
		h0.4c0.2,0,0.3,0,0.4,0c0.2,0,0.2,0,0.3,0s0.3,0,0.4-0.1c0.1-0.1,0.1-0.3,0-0.4C186.2,476.4,186.2,476.2,186.1,475.9L186.1,475.9z
		 M204.5,464.8l-0.5-0.1c-0.2-0.1-0.4-0.1-0.6-0.1c-0.1,0-0.2,0-0.3-0.1s-0.3,0-0.4-0.1c-0.1,0-0.3,0-0.4-0.1c-0.1,0-0.2,0-0.2,0
		c-0.1,0.1-0.1,0.1-0.1,0.2c-0.1,0.1-0.1,0.3-0.1,0.4c0,0.2-0.1,0.3-0.1,0.4s-0.1,0.3-0.1,0.4c0,0.3-0.1,0.4-0.2,0.3
		c-0.4-0.6-1.1-1.2-1.7-1.5c-0.7-0.4-1.6-0.6-2.5-0.6c-0.8,0-1.6,0.1-2.4,0.4c-0.7,0.3-1.3,0.7-2,1.3c-0.6,0.7-1.2,1.4-1.4,2.3
		c-0.4,0.9-0.5,1.9-0.5,2.8c0,0.8,0.2,1.7,0.4,2.5c0.3,0.8,0.7,1.5,1.3,2.1c0.5,0.5,1.2,1,1.8,1.4c0.7,0.4,1.6,0.5,2.4,0.5
		c0.4,0,0.8-0.1,1.3-0.2c0.4-0.1,0.7-0.3,1.1-0.4c0.4-0.2,0.6-0.4,0.9-0.6c0.3-0.3,0.5-0.4,0.8-0.7c0.1,0,0.2-0.1,0.3-0.1
		s0.2,0.1,0.2,0.2c0,0.3,0.1,0.5,0.1,0.8c0.1,0.3,0.1,0.5,0.2,0.8c0,0.1,0.2,0.2,0.4,0.1c0.1,0,0.3,0,0.5-0.1c0.2-0.1,0.4,0,0.5-0.1
		c0.2,0,0.4,0,0.5,0c0.2,0,0.4,0,0.4,0s0.3,0,0.3-0.2c0.1-0.2,0.1-0.3,0-0.4c0-0.3-0.1-0.5-0.1-1c0-0.4-0.1-0.9-0.1-1.4
		c0-0.5-0.1-1.1-0.1-1.7c0-0.6,0-1.2,0-1.7c0-0.4,0-0.8,0-1.3c0-0.4,0.1-1,0.1-1.4c0.1-0.4,0.1-0.9,0.2-1.3c0.1-0.4,0.1-0.8,0.2-1.2
		C204.7,465,204.6,464.9,204.5,464.8L204.5,464.8L204.5,464.8z M201,472.1c-0.2,0.4-0.4,0.9-0.8,1.3c-0.4,0.4-0.7,0.6-1.2,0.9
		c-0.4,0.2-0.9,0.3-1.3,0.3s-1-0.1-1.4-0.3s-0.8-0.5-1.2-0.9c-0.4-0.4-0.6-0.8-0.8-1.3c-0.4-1-0.4-2.1,0-3.1
		c0.2-0.4,0.4-0.9,0.8-1.3c0.4-0.4,0.7-0.6,1.2-0.9c0.4-0.2,0.9-0.4,1.4-0.3c0.4,0,1,0.1,1.4,0.3c0.4,0.2,0.8,0.5,1.2,0.9
		c0.4,0.4,0.6,0.8,0.7,1.3c0.2,0.5,0.3,1.1,0.3,1.6C201.3,471.1,201.2,471.6,201,472.1L201,472.1z M212.9,458.5
		c-0.1-0.1-0.2-0.1-0.2-0.1c-0.2,0-0.4,0-0.6,0c-0.2,0-0.5,0-0.8,0s-0.5,0-0.8,0s-0.5,0-0.6-0.1c-0.1,0-0.2,0-0.3,0.1
		c0,0.1,0,0.2,0,0.3c0,0.2,0,0.4,0,0.8c0,0.4,0,0.9,0.1,1.5c0.1,0.6,0,1.2,0.1,1.8c0.1,0.6,0.1,1.3,0.1,1.8s0,1.1,0,1.5
		c0,0.4,0,0.7,0,0.9v1.1c0,0.5,0,1.2,0,1.8c0,0.6,0,1.3,0,2.1c0,0.7,0,1.4,0,2.1c0,0.6,0,1.2,0,1.6v0.7c0,0.1,0,0.2,0.1,0.3
		c0.1,0,0.1,0.1,0.2,0c0.2,0,0.4,0,0.5,0c0.3,0,0.5,0,0.7,0c0.2,0,0.4,0,0.7,0c0.3,0,0.4,0,0.5,0c0.2,0,0.2-0.1,0.2-0.3
		c0-0.1,0-0.4,0-0.8s0-1,0-1.6c0-0.6,0-1.3,0-2.1c0-0.7,0-1.4,0-2.1c0-0.6,0-1.3,0-1.8c0-0.5,0-0.9,0-1.1c0-0.2,0-0.4,0-0.9
		c0-0.4,0-1,0-1.5c0-0.5,0-1.2,0.1-1.8c0.1-0.6,0.1-1.3,0.1-1.8c0-0.5,0-1.1,0.1-1.5c0.1-0.4,0-0.7,0.1-0.9
		C212.9,458.7,212.9,458.6,212.9,458.5L212.9,458.5z M221.5,458.5c-0.1-0.1-0.2-0.1-0.2-0.1c-0.2,0-0.4,0-0.6,0c-0.2,0-0.5,0-0.8,0
		c-0.3,0-0.5,0-0.8,0s-0.5,0-0.6-0.1c-0.1,0-0.2,0-0.3,0.1c0,0.1,0,0.2,0,0.3c0,0.2,0,0.4,0,0.8c0,0.4,0,0.9,0.1,1.5
		c0,0.5,0,1.2,0.1,1.8c0,0.6,0.1,1.3,0.1,1.8s0,1.1,0,1.5c0,0.4,0,0.7,0,0.9v1.1c0,0.5,0,1.2,0,1.8c0,0.6,0,1.3,0,2.1
		c0,0.7,0,1.4,0,2.1c0,0.6,0,1.2,0,1.6v0.7c0,0.1,0,0.2,0.1,0.3c0.1,0,0.1,0.1,0.2,0c0.2,0,0.4,0,0.5,0c0.3,0,0.5,0,0.7,0
		s0.4,0,0.7,0c0.3,0,0.4,0,0.5,0c0.2,0,0.2-0.1,0.2-0.3c0-0.1,0-0.4,0-0.8s0-1,0-1.6c0-0.6,0-1.3,0-2.1c0-0.7,0-1.4,0-2.1
		c0-0.6,0-1.3,0-1.8c0-0.5,0-0.9,0-1.1c0-0.2,0-0.4,0-0.9c0-0.4,0-1,0-1.5c0-0.5,0-1.2,0.1-1.8c0.1-0.6,0.1-1.3,0.1-1.8
		c0-0.5,0-1.1,0.1-1.5c0.1-0.4,0-0.7,0.1-0.9C221.5,458.7,221.5,458.6,221.5,458.5L221.5,458.5z"/>
</g>
<g id="レイヤー_2" display="none">
	<g display="inline">
		<path fill="#333333" d="M54.7,465.5c0,1,0,2.5,0,4.6c0,2,0,3.6,0,4.6c0,2-0.4,3.5-1.3,4.5c-0.9,1-2.4,1.5-4.4,1.5
			c-1.9,0-3.5-0.4-4.7-1.1c-0.2-0.1-0.3-0.2-0.3-0.3c0,0.1,0.1-0.5,0.4-1.9c0-0.1,0.1-0.2,0.2-0.2c0,0,0.1,0,0.2,0.1
			c1.3,0.7,2.6,1.1,3.8,1.1c0.8,0,1.5-0.2,2.1-0.6c0.6-0.4,1-1,1-1.8c0-0.2,0-0.6-0.1-1.2c-0.9,1.1-2.1,1.7-3.6,1.7
			c-1.6,0-2.9-0.6-3.9-1.7s-1.5-2.4-1.5-4s0.5-3,1.4-4.1c1-1.2,2.3-1.8,3.9-1.8c1.4,0,2.5,0.5,3.3,1.6c0.1,0.2,0.2,0.3,0.3,0.3
			s0.1-0.1,0.1-0.2s0-0.3,0-0.5c0-0.2,0-0.4,0-0.5c0-0.5,0.1-0.8,0.2-0.8c0.1,0,0.5,0.1,1.4,0.2c0.8,0.2,1.3,0.3,1.4,0.3
			C54.7,465.2,54.7,465.3,54.7,465.5z M51.7,470.7c0-0.9-0.3-1.8-0.8-2.4c-0.6-0.7-1.3-1.1-2.2-1.1s-1.7,0.4-2.2,1.1
			c-0.5,0.7-0.8,1.5-0.8,2.4s0.3,1.7,0.8,2.4c0.6,0.7,1.3,1.1,2.2,1.1s1.6-0.4,2.2-1.1C51.4,472.4,51.7,471.6,51.7,470.7z"/>
	</g>
</g>
<g>
	<path fill="#333333" d="M20.8,458.9c0,1,0,2.4-0.1,4.4s-0.1,3.4-0.1,4.4c0,0.9,0,2.3,0,4.1c0,1.8,0,3.2,0,4.1
		c0,0.3-0.1,0.4-0.3,0.4c-0.1,0-0.3,0-0.6,0s-0.4,0-0.6,0c-0.1,0-0.3,0-0.6,0s-0.5,0-0.6,0c-0.2,0-0.3-0.1-0.5-0.4
		c-1.8-2.5-4.6-6.1-8.3-11c-0.6-0.7-0.9-1.2-1-1.2c-0.1,0-0.1,0.2-0.1,0.5c0,1.3,0,3.3,0.1,5.9c0,2.6,0.1,4.6,0.1,5.9
		c0,0.3-0.1,0.4-0.3,0.4c-0.1,0-0.4,0-0.7,0s-0.5,0-0.7,0c-0.2,0-0.4,0-0.7,0s-0.5,0-0.7,0c-0.2,0-0.3-0.1-0.3-0.3
		c0-0.9,0-2.3,0.1-4.2c0.1-1.9,0.1-3.3,0.1-4.2c0-1,0-2.9-0.1-5.5c0-0.7-0.1-1.7-0.1-3.1l0-0.2c0-0.1,0.1-0.2,0.3-0.2
		c0.6,0,1,0,1.3-0.1c0.1,0,0.3,0,0.7-0.1c0.3-0.1,0.5-0.1,0.7-0.1c0.1,0,0.2,0.1,0.4,0.4c1.9,2.7,4.9,6.7,8.9,11.9
		c0.2,0.2,0.3,0.4,0.5,0.6c0.1-0.4,0.1-1.2,0.1-2.4c0-1.1,0-2.8-0.1-5s-0.1-3.8-0.1-4.9c0-0.3,0.1-0.4,0.3-0.4c0.2,0,0.4,0,0.7,0
		s0.5,0,0.7,0c0.2,0,0.4,0,0.7,0s0.6,0,0.7,0C20.7,458.6,20.8,458.7,20.8,458.9z"/>
	<path fill="#333333" d="M38.4,464.9c0,0,0,0.1,0,0.2c-0.3,1.9-0.5,3.6-0.5,5c0,0.1,0.1,2,0.3,5.7l0,0.2c0,0.2-0.1,0.4-0.3,0.4
		s-0.6,0-1.1,0.1c-0.5,0.1-0.8,0.1-1,0.1c-0.2,0-0.3-0.3-0.4-0.9s-0.2-0.9-0.2-0.9c-0.1,0-0.3,0.2-0.7,0.5c-0.5,0.4-1,0.7-1.4,0.9
		c-0.7,0.3-1.3,0.5-2,0.5c-1.6,0-3-0.7-4.2-2c-1.1-1.3-1.6-2.7-1.6-4.4c0-1.9,0.5-3.4,1.6-4.7c1.1-1.3,2.6-1.9,4.4-1.9
		c1.3,0,2.4,0.4,3.4,1.3c0.1,0.2,0.4,0.4,0.7,0.7c0,0,0.1,0,0.1,0c0.1,0,0.1-0.3,0.2-0.8s0.2-0.8,0.4-0.8c0.2,0,0.7,0.1,1.3,0.2
		C38,464.6,38.4,464.8,38.4,464.9z M35.2,470.2c0-1-0.3-1.9-0.9-2.7c-0.7-0.8-1.5-1.2-2.5-1.2s-1.9,0.4-2.5,1.2
		c-0.7,0.8-1,1.7-1,2.7c0,1,0.3,1.9,1,2.7c0.7,0.8,1.5,1.2,2.5,1.2c1,0,1.8-0.4,2.5-1.2C34.8,472.1,35.2,471.2,35.2,470.2z"/>
	<path fill="#333333" d="M54.3,464.6c0,1,0,2.5,0,4.6c0,2,0,3.6,0,4.6c0,2-0.4,3.5-1.3,4.5c-0.9,1-2.4,1.5-4.3,1.5
		c-1.9,0-3.5-0.4-4.7-1.1c-0.2-0.1-0.3-0.2-0.3-0.3c0,0.1,0.1-0.5,0.4-1.9c0-0.1,0.1-0.2,0.2-0.2c0,0,0.1,0,0.2,0.1
		c1.3,0.7,2.5,1.1,3.8,1.1c0.8,0,1.5-0.2,2.1-0.6c0.6-0.4,1-1,1-1.8c0-0.2,0-0.6-0.1-1.2c-0.9,1.1-2.1,1.7-3.6,1.7
		c-1.6,0-2.9-0.6-3.9-1.7c-1-1.1-1.4-2.4-1.4-4c0-1.6,0.5-3,1.4-4.1c1-1.2,2.3-1.8,3.9-1.8c1.4,0,2.5,0.5,3.3,1.6
		c0.1,0.2,0.2,0.3,0.3,0.3c0.1,0,0.1-0.1,0.1-0.2c0-0.1,0-0.3,0-0.5c0-0.2,0-0.4,0-0.5c0-0.5,0.1-0.8,0.2-0.8c0.1,0,0.5,0.1,1.4,0.2
		c0.8,0.2,1.3,0.3,1.4,0.3C54.2,464.3,54.3,464.4,54.3,464.6z M51.2,469.8c0-0.9-0.3-1.8-0.8-2.4c-0.6-0.7-1.3-1.1-2.2-1.1
		c-0.9,0-1.7,0.4-2.2,1.1c-0.5,0.7-0.8,1.5-0.8,2.4c0,0.9,0.3,1.7,0.8,2.4c0.6,0.7,1.3,1.1,2.2,1.1c0.9,0,1.6-0.4,2.2-1.1
		C50.9,471.5,51.2,470.7,51.2,469.8z"/>
	<path fill="#333333" d="M71.5,464.9c0,0,0,0.1,0,0.2c-0.3,1.9-0.5,3.6-0.5,5c0,0.1,0.1,2,0.3,5.7l0,0.2c0,0.2-0.1,0.4-0.3,0.4
		s-0.6,0-1.1,0.1c-0.5,0.1-0.8,0.1-1,0.1c-0.2,0-0.3-0.3-0.4-0.9s-0.2-0.9-0.2-0.9c-0.1,0-0.3,0.2-0.7,0.5c-0.5,0.4-1,0.7-1.4,0.9
		c-0.7,0.3-1.3,0.5-2,0.5c-1.6,0-3-0.7-4.2-2c-1.1-1.3-1.6-2.7-1.6-4.4c0-1.9,0.5-3.4,1.6-4.7c1.1-1.3,2.6-1.9,4.4-1.9
		c1.3,0,2.4,0.4,3.4,1.3c0.1,0.2,0.4,0.4,0.7,0.7c0,0,0.1,0,0.1,0c0.1,0,0.1-0.3,0.2-0.8s0.2-0.8,0.4-0.8c0.2,0,0.7,0.1,1.3,0.2
		C71.2,464.6,71.5,464.8,71.5,464.9z M68.3,470.2c0-1-0.3-1.9-0.9-2.7c-0.7-0.8-1.5-1.2-2.5-1.2s-1.9,0.4-2.5,1.2
		c-0.7,0.8-1,1.7-1,2.7c0,1,0.3,1.9,1,2.7c0.7,0.8,1.5,1.2,2.5,1.2c1,0,1.8-0.4,2.5-1.2C68,472.1,68.3,471.2,68.3,470.2z"/>
	<path fill="#333333" d="M79.5,461.2c0,1-0.6,1.6-1.7,1.6c-1.2,0-1.8-0.5-1.8-1.6c0-0.5,0.2-0.9,0.5-1.2c0.3-0.3,0.7-0.4,1.2-0.4
		s0.9,0.1,1.2,0.4S79.5,460.7,79.5,461.2z M79.4,464.6c0,0.7,0,1.6-0.1,3c-0.1,1.3-0.1,2.3-0.1,3c0,0.6,0,1.5,0,2.8
		c0,1.2,0,2.2,0,2.8c0,0.2-0.1,0.3-0.2,0.3h-2.5c-0.2,0-0.3-0.2-0.3-0.5c0-0.6,0-1.5,0-2.6c0-1.2,0-2.1,0-2.6c0-0.7,0-1.7-0.1-3
		s-0.1-2.3-0.1-3c0-0.1,0.1-0.2,0.3-0.2c0.2,0,0.4,0,0.7,0.1s0.6,0.1,0.7,0.1s0.4,0,0.7-0.1s0.6-0.1,0.7-0.1
		C79.3,464.4,79.4,464.5,79.4,464.6z"/>
	<path fill="#333333" d="M107.6,473.5c0,0.1-0.1,0.2-0.2,0.4c-1.7,1.9-3.7,2.9-6.1,2.9c-2.5,0-4.6-0.9-6.1-2.8
		c-1.4-1.7-2.1-3.9-2.1-6.5s0.7-4.8,2.2-6.5c1.5-1.9,3.6-2.8,6.1-2.8c2.6,0,4.5,0.9,6,2.6c0.1,0.2,0.2,0.3,0.2,0.4
		c0,0.1-0.2,0.6-0.7,1.3c-0.4,0.7-0.7,1.1-0.8,1.1c-0.1,0-0.4-0.2-0.8-0.6c-0.5-0.5-1-0.9-1.4-1.1c-0.7-0.4-1.5-0.6-2.4-0.6
		c-1.7,0-3,0.6-3.9,1.9c-0.8,1.1-1.2,2.6-1.2,4.3s0.4,3.2,1.2,4.4c0.9,1.3,2.2,2,3.9,2c0.8,0,1.6-0.2,2.4-0.6c0.5-0.3,1-0.7,1.5-1.2
		c0.4-0.4,0.7-0.6,0.7-0.6c0.1,0,0.3,0.3,0.8,1C107.4,473,107.6,473.4,107.6,473.5z"/>
	<path fill="#333333" d="M114.9,461.2c0,1-0.6,1.6-1.7,1.6c-1.2,0-1.8-0.5-1.8-1.6c0-0.5,0.2-0.9,0.5-1.2c0.3-0.3,0.7-0.4,1.2-0.4
		s0.9,0.1,1.2,0.4S114.9,460.7,114.9,461.2z M114.8,464.6c0,0.7,0,1.6-0.1,3c-0.1,1.3-0.1,2.3-0.1,3c0,0.6,0,1.5,0,2.8
		c0,1.2,0,2.2,0,2.8c0,0.2-0.1,0.3-0.2,0.3H112c-0.2,0-0.3-0.2-0.3-0.5c0-0.6,0-1.5,0-2.6c0-1.2,0-2.1,0-2.6c0-0.7,0-1.7-0.1-3
		s-0.1-2.3-0.1-3c0-0.1,0.1-0.2,0.3-0.2c0.2,0,0.4,0,0.7,0.1s0.6,0.1,0.7,0.1s0.4,0,0.7-0.1s0.6-0.1,0.7-0.1
		C114.8,464.4,114.8,464.5,114.8,464.6z"/>
	<path fill="#333333" d="M130.9,468c0,1.2,0,1.9-0.1,2.1c-0.1,0.4-0.8,1.5-2.1,3.3c-1.3,1.9-2,2.9-2.3,3c-0.1,0.1-0.5,0.1-1.1,0.1
		c-0.6,0-0.9,0-1.1-0.1c-0.2-0.1-1-1-2.3-2.9c-1.3-1.8-2-2.9-2.1-3.3c-0.2-0.5-0.3-1.4-0.3-2.5c0-0.3,0-0.9,0-1.6s0-1.2,0-1.6
		c0-0.2,0.1-0.3,0.3-0.3c0.3,0,0.7,0,1.3,0s1,0,1.3,0c0.2,0,0.2,0.1,0.2,0.3c0,0.3,0,0.7-0.1,1.2c0,0.5-0.1,0.9-0.1,1.2
		c0,0.8,0,1.5,0.1,2.1c0,0.3,0.5,1.1,1.3,2.4s1.3,1.9,1.5,1.9c0.2,0,0.6-0.6,1.4-1.8c0.7-1.2,1.1-2,1.2-2.3c0.1-0.4,0.1-1.2,0.1-2.2
		c0-0.3,0-0.7-0.1-1.3s-0.1-1-0.1-1.3c0-0.1,0.1-0.2,0.2-0.2c0.3,0,0.7,0,1.2,0c0.5,0,0.9,0,1.2,0
		C130.8,464.4,130.9,465.6,130.9,468z"/>
	<path fill="#333333" d="M139,461.2c0,1-0.6,1.6-1.7,1.6c-1.2,0-1.8-0.5-1.8-1.6c0-0.5,0.2-0.9,0.5-1.2c0.3-0.3,0.7-0.4,1.2-0.4
		s0.9,0.1,1.2,0.4S139,460.7,139,461.2z M138.9,464.6c0,0.7,0,1.6-0.1,3c-0.1,1.3-0.1,2.3-0.1,3c0,0.6,0,1.5,0,2.8
		c0,1.2,0,2.2,0,2.8c0,0.2-0.1,0.3-0.2,0.3h-2.5c-0.2,0-0.3-0.2-0.3-0.5c0-0.6,0-1.5,0-2.6c0-1.2,0-2.1,0-2.6c0-0.7,0-1.7-0.1-3
		s-0.1-2.3-0.1-3c0-0.1,0.1-0.2,0.3-0.2c0.2,0,0.4,0,0.7,0.1s0.6,0.1,0.7,0.1s0.4,0,0.7-0.1s0.6-0.1,0.7-0.1
		C138.9,464.4,138.9,464.5,138.9,464.6z"/>
	<path fill="#333333" d="M152.9,464.9c0,0.2-0.1,0.6-0.3,1.2s-0.3,1-0.4,1c-0.4-0.2-0.8-0.3-1.1-0.5s-0.8-0.3-1.3-0.3
		c-1,0-1.9,0.4-2.6,1.2s-1,1.7-1,2.7c0,1,0.3,1.9,1,2.7c0.7,0.8,1.6,1.2,2.6,1.2c0.6,0,1.1-0.1,1.7-0.4s0.8-0.4,0.7-0.4
		c0.1,0,0.2,0.4,0.4,1.1c0.1,0.6,0.2,1.1,0.2,1.3c0,0.3-0.5,0.5-1.5,0.8c-0.8,0.2-1.4,0.3-1.8,0.3c-1.7,0-3.2-0.7-4.4-2
		c-1.2-1.3-1.8-2.8-1.8-4.5c0-1.8,0.6-3.3,1.7-4.6c1.2-1.3,2.7-1.9,4.4-1.9c1.2,0,2.3,0.3,3.3,0.9
		C152.8,464.7,152.9,464.8,152.9,464.9z"/>
	<path fill="#333333" d="M182.2,476.1c0,0.2-0.1,0.3-0.4,0.3c-0.1,0-0.4,0-0.7,0s-0.5,0-0.7,0c-0.2,0-0.4,0-0.7,0s-0.6,0-0.7,0
		c-0.2,0-0.3-0.1-0.3-0.3c0-0.8,0-1.9,0.1-3.4s0.1-2.7,0.1-3.4c0-0.3-0.1-0.5-0.3-0.6c-0.3-0.1-1.7-0.1-4.4-0.1
		c-2.7,0-4.1,0-4.4,0.1c-0.2,0.1-0.3,0.2-0.3,0.6c0,0.7,0,1.9,0.1,3.4s0.1,2.6,0.1,3.4c0,0.3-0.1,0.4-0.3,0.4c-0.2,0-0.4,0-0.7,0
		s-0.6,0-0.7,0c-0.2,0-0.4,0-0.7,0s-0.5,0-0.7,0c-0.2,0-0.3-0.1-0.3-0.3c0-0.9,0-2.3,0.1-4.2c0.1-1.9,0.1-3.3,0.1-4.2
		c0-1,0-2.5-0.1-4.4c-0.1-2-0.1-3.4-0.1-4.4c0-0.2,0.1-0.3,0.3-0.3c0.2,0,0.4,0,0.7,0s0.6,0,0.7,0c0.2,0,0.4,0,0.7,0s0.6,0,0.7,0
		c0.2,0,0.3,0.1,0.3,0.2c0,0.7,0,1.8-0.1,3.3c-0.1,1.5-0.1,2.6-0.1,3.3c0,0.2,0.1,0.4,0.3,0.4c0.2,0.1,1.7,0.1,4.5,0.1
		c2.7,0,4.2,0,4.4-0.1c0.2-0.1,0.3-0.2,0.3-0.5c0-0.7,0-1.8-0.1-3.2s-0.1-2.5-0.1-3.2c0-0.2,0.1-0.3,0.3-0.3c0.2,0,0.4,0,0.7,0
		s0.5,0,0.7,0c0.2,0,0.4,0,0.7,0s0.5,0,0.7,0c0.2,0,0.3,0.1,0.3,0.3c0,1,0,2.5-0.1,4.4c-0.1,2-0.1,3.4-0.1,4.4c0,0.9,0,2.3,0.1,4.2
		C182.2,473.8,182.2,475.2,182.2,476.1z"/>
	<path fill="#333333" d="M199.7,464.9c0,0,0,0.1,0,0.2c-0.3,1.9-0.5,3.6-0.5,5c0,0.1,0.1,2,0.3,5.7l0,0.2c0,0.2-0.1,0.4-0.3,0.4
		s-0.6,0-1.1,0.1c-0.5,0.1-0.8,0.1-1,0.1c-0.2,0-0.3-0.3-0.4-0.9s-0.2-0.9-0.2-0.9c-0.1,0-0.3,0.2-0.7,0.5c-0.5,0.4-1,0.7-1.4,0.9
		c-0.7,0.3-1.3,0.5-2,0.5c-1.6,0-3-0.7-4.2-2c-1.1-1.3-1.6-2.7-1.6-4.4c0-1.9,0.5-3.4,1.6-4.7c1.1-1.3,2.6-1.9,4.4-1.9
		c1.3,0,2.4,0.4,3.4,1.3c0.1,0.2,0.4,0.4,0.7,0.7c0,0,0.1,0,0.1,0c0.1,0,0.1-0.3,0.2-0.8s0.2-0.8,0.4-0.8c0.2,0,0.7,0.1,1.3,0.2
		C199.4,464.6,199.7,464.8,199.7,464.9z M196.5,470.2c0-1-0.3-1.9-0.9-2.7c-0.7-0.8-1.5-1.2-2.5-1.2s-1.9,0.4-2.5,1.2
		c-0.7,0.8-1,1.7-1,2.7c0,1,0.3,1.9,1,2.7c0.7,0.8,1.5,1.2,2.5,1.2c1,0,1.8-0.4,2.5-1.2C196.2,472.1,196.5,471.2,196.5,470.2z"/>
	<path fill="#333333" d="M207.6,458.8l0,0.2c-0.2,3.1-0.3,5.9-0.3,8.1c0,1,0,2.5,0.1,4.5c0,2,0.1,3.5,0.1,4.5c0,0.2-0.1,0.3-0.2,0.3
		h-2.4c-0.2,0-0.2-0.1-0.2-0.3c0-1,0-2.5,0-4.5c0-2,0-3.5,0-4.5c0-0.9,0-2.3-0.1-4.1c-0.1-1.8-0.1-3.2-0.1-4.1
		c0-0.2,0.1-0.3,0.3-0.3c0.2,0,0.4,0,0.7,0s0.5,0,0.7,0c0.2,0,0.4,0,0.7,0s0.5,0,0.7,0S207.6,458.6,207.6,458.8z"/>
	<path fill="#333333" d="M215.9,458.8l0,0.2c-0.2,3.1-0.3,5.9-0.3,8.1c0,1,0,2.5,0.1,4.5c0,2,0.1,3.5,0.1,4.5c0,0.2-0.1,0.3-0.2,0.3
		h-2.4c-0.2,0-0.2-0.1-0.2-0.3c0-1,0-2.5,0-4.5c0-2,0-3.5,0-4.5c0-0.9,0-2.3-0.1-4.1c-0.1-1.8-0.1-3.2-0.1-4.1
		c0-0.2,0.1-0.3,0.3-0.3c0.2,0,0.4,0,0.7,0s0.5,0,0.7,0c0.2,0,0.4,0,0.7,0s0.5,0,0.7,0S216,458.6,215.9,458.8z"/>
</g>
</svg>
