<?xml version="1.0" encoding="utf-8"?>
<!-- Generator: Adobe Illustrator 25.2.0, SVG Export Plug-In . SVG Version: 6.00 Build 0)  -->
<svg version="1.1" id="logo.svg" xmlns="http://www.w3.org/2000/svg" xmlns:xlink="http://www.w3.org/1999/xlink" x="0px" y="0px"
	 viewBox="0 0 665.3 126" style="enable-background:new 0 0 665.3 126;" xml:space="preserve">
<style type="text/css">
	.st0{fill-rule:evenodd;clip-rule:evenodd;fill:#333333;}
</style>
<path id="長井市民文化会館" class="st0" d="M59.1,44.7h7.7c2.5,0,4.9,0.1,7.4,0.5v-8.8c-2.7,0.4-5.4,0.5-8.1,0.5H22.3v-4.3
	h34.9c2.5-0.1,5.1,0.1,7.6,0.4v-7.5c-2.5,0.3-5,0.4-7.6,0.4H22.3v-4h34.9c2.5,0,5.1,0.1,7.6,0.4v-7.4c-2.5,0.3-5,0.4-7.6,0.4H22.3
	v-4.1h36.1c3.2-0.1,6.3,0.1,9.5,0.4V3c-3.2,0.4-6.4,0.6-9.5,0.5H21.5c-3,0.1-6-0.1-9-0.4c0.3,2.7,0.4,5.4,0.3,8.1v25.7H8.6
	C5.7,37,2.8,36.8,0,36.4v8.8c2.8-0.4,5.6-0.6,8.4-0.5h4.4V65C9,65.8,5.1,66.3,1.2,66.5l1.7,9.1c1.5-0.4,1.7-0.4,3.7-0.8
	C21.1,72,29.9,69.9,38.7,67l-0.1-8.1c-5.4,1.8-10.9,3.3-16.5,4.4V44.7h7.2c2.8,6.3,7.2,11.8,12.6,16.1c8.1,6.7,17.3,11.1,29.6,14.2
	c1-3.3,2.5-6.4,4.4-9.4c-7.5-1.3-14.8-3.7-21.5-7.2c2.8-1.6,5.4-3.5,7.9-5.6c3-2.7,4-3.6,4.7-4.1L59.1,44.7z M58.2,44.7
	c-3.3,3.6-7,6.8-11,9.4c-3.6-2.4-6.6-5.6-8.6-9.4H58.2z M105.3,23.5v7.7c0,3.1-0.2,7-0.5,10.1h-9.4c-3.3,0-6.5-0.1-9.8-0.5v9.5
	c3.3-0.5,6.6-0.7,10-0.6h8c-2.1,8-6,12.5-15.6,18.6c2.7,2.2,5.1,4.7,7.1,7.6c5.5-3.7,8.5-6.4,11.4-10.3c3.5-4.7,5.9-10.1,6.8-15.9
	h19.9v15.5c0.1,3.5-0.1,6.9-0.5,10.3h10.1c-0.5-3.4-0.6-6.9-0.6-10.3V49.7h8.8c3.4,0,6.8,0.1,10.1,0.6v-9.5
	c-3.4,0.4-6.7,0.5-10.1,0.5h-8.8V23.5h6.7c3.4,0,6.8,0.1,10.1,0.5v-9.5c-3.4,0.4-6.7,0.6-10.1,0.6h-6.7v-4.6
	c-0.1-3.1,0.1-6.3,0.6-9.4h-10.1c0.4,3.1,0.6,6.2,0.5,9.4V15h-18.5v-5c-0.1-3,0.1-6.1,0.5-9.1h-10.4c0.4,2,0.5,3.7,0.5,8.6V15H98
	c-3.4,0.1-6.8-0.1-10.1-0.6V24c3.4-0.4,6.8-0.6,10.2-0.5L105.3,23.5L105.3,23.5z M114.7,23.5h18.5v17.8h-18.9
	c0.3-4.2,0.4-6.1,0.4-8.3L114.7,23.5L114.7,23.5z M203,10.5h-21.5c-3.5,0-6.9-0.1-10.4-0.6v9.3c3.4-0.3,6.7-0.5,10.1-0.5h54.5
	c3.4-0.1,6.8,0.1,10.1,0.5V9.9c-3.4,0.4-6.9,0.6-10.4,0.6h-23.3V6.4c0-2,0.2-4,0.6-5.9h-10.4c0.3,2,0.5,4,0.5,6V10.5L203,10.5z
	 M203,27.5h-17.3c-3.5,0-5.8-0.1-8.5-0.3c0.2,2.3,0.3,4.7,0.3,7V59c0,3.2-0.1,6.4-0.5,9.5h10.1c-0.4-3.2-0.6-6.4-0.5-9.6V35.5H203
	v30.3c0,3.3-0.2,6.6-0.6,9.9h10.4c-0.4-3.3-0.6-6.7-0.6-10V35.5h17.9v21.2c0,2.1-0.7,2.5-4.1,2.5c-2.7-0.1-5.4-0.4-8.1-0.8
	c1.2,2.8,1.9,5.7,2.2,8.7c3.4,0.2,4.9,0.3,6.8,0.3c9.6,0,12-1.9,12-9.2v-24c0-2.3,0.1-4.7,0.3-7c-2.7,0.3-5.4,0.4-8.1,0.3h-19.1v-1
	c-0.1-2,0-4,0.3-5.9h-9.9c0.2,2,0.4,4,0.3,5.9L203,27.5L203,27.5z M310.7,29.2c3.8,0,6.2,0.1,9,0.2c-0.3-2.5-0.4-5-0.3-7.5v-9.4
	c-0.1-2.6,0-5.2,0.3-7.8c-3.1,0.3-6.1,0.5-9.2,0.4h-39.4c-3.3,0.1-6.6-0.1-10-0.4c0.2,2.9,0.4,5.5,0.4,9.9v50.6
	c-2.9,0.5-5.8,0.8-8.7,0.9l2,9.6c1.2-0.2,1.5-0.3,2.9-0.7c2.1-0.4,2.1-0.4,3.4-0.7c1.3-0.3,4.4-0.9,6.9-1.4
	c8.6-1.7,17.2-3.8,25.6-6.4v-8.6c-9.1,2.6-13.7,3.7-22.9,5.6V46.1l20.6-0.2c1.9,6.3,4.9,12.2,8.8,17.5c5.6,7.2,12.4,11.8,17.8,11.8
	c5.2,0,7.9-4.6,9.7-16.5c-2.8-1.3-5.5-2.9-7.9-4.8c-1,8.4-1.8,11.2-3.1,11.2c-1.4,0-4.9-2.4-7.3-5c-3.9-4.1-6.8-9-8.6-14.3l14.7-0.2
	h2.1c2.4,0,4.9,0.2,8.1,0.4l-0.2-9.3c-3.3,0.5-6.7,0.7-10,0.6l-16.9,0.2c-0.6-2.8-1-5.6-1.2-8.5L310.7,29.2L310.7,29.2z M288.4,29.2
	c0.4,3.9,0.7,6.8,1.1,8.5l-18.8,0.2v-8.6H288.4z M270.7,13h39.9v8.4h-39.9L270.7,13L270.7,13z M403.5,21.3c3.4,0,6.7,0.1,10,0.5
	v-9.2c-3.4,0.4-6.9,0.6-10.4,0.6h-22.9V7.3c0-2.1,0.2-4.2,0.6-6.2h-10.4c0.4,2.1,0.6,4.2,0.6,6.3v5.8h-21.9c-3.4,0-6.9-0.1-10.3-0.6
	v9.2c3.3-0.3,6.7-0.5,10-0.5h3.9c2.8,8.3,4.3,11.8,7.4,17.1c2.8,4.7,6,9,9.7,13c-8.5,6.9-17.6,11.2-32.3,15.1c2.2,2.6,4,5.6,5.3,8.7
	c6-1.9,11.9-4.2,17.5-7c5.7-2.9,11.1-6.5,16.1-10.6c9.1,7.7,19.2,13,33.1,17.6c1.3-3.5,3.2-6.7,5.7-9.5
	c-13.2-2.9-23.1-7.3-32.2-14.3c3.8-4.2,7-8.8,9.7-13.8c3-5.5,4.3-8.8,6.4-16.4L403.5,21.3L403.5,21.3z M389.5,21.3
	c-1.3,4.8-3.2,9.5-5.7,13.8c-2.1,3.7-4.6,7.1-7.5,10.3c-3-3.1-5.7-6.5-7.9-10.2c-2.7-4.4-4.8-9-6.3-13.9L389.5,21.3L389.5,21.3z
	 M464.5,39.4c10.1-5.1,19.4-11.5,27.8-19.1c0.8-0.7,1.2-1,1.8-1.5l-7.2-7.2c-4.5,5.9-13,12.5-22.5,17.5V11.1c0-3.3,0.1-6.5,0.5-9.8
	h-10.3c0.4,3.2,0.5,6.5,0.5,9.8v53.7c0,7.4,2.5,8.8,15.8,8.8s17.8-0.9,20.4-4c2-2.4,3.1-7.8,3.8-17.9c-3.1-0.7-6.1-1.8-8.9-3.2
	c-0.4,9.9-0.9,13-2.3,14.9c-1.1,1.3-4,1.8-11.4,1.8c-6.6,0-8.1-0.5-8.1-2.7L464.5,39.4L464.5,39.4z M431.9,65
	c0,3.5-0.2,7.1-0.6,10.6h10.1c-0.3-3.4-0.5-7.1-0.5-10.4V21.4c2.2-4.6,4.2-9.3,5.9-14.2c0.7-2,1.1-2.9,1.8-4.5L439.1,0
	c-0.9,5.5-3.9,13-8.3,20.2c-3.2,5.3-7.1,10.2-11.5,14.5c1.9,3,3.3,6.2,4.4,9.6c3.1-3.3,5.9-6.8,8.5-10.6c-0.2,5.5-0.2,6.3-0.2,9.1
	L431.9,65L431.9,65z M520.5,33.5c2.4-0.2,4.7-0.3,7.1-0.3h27.5c2.5,0,4.9,0.1,7.4,0.3v-6.4c4.5,2.9,9.2,5.4,14.1,7.4
	c1.1-3.2,2.6-6.3,4.5-9.1c-7.5-2.7-14.6-6.4-21.1-11c-5.5-3.6-10.2-8.1-13.9-13.5h-9.8c-3.5,5.3-7.9,9.9-13,13.7
	c-6.3,4.8-11.8,7.8-20.6,11.3c1.9,2.6,3.5,5.3,4.8,8.3c4.6-1.9,9-4.3,13.2-7L520.5,33.5L520.5,33.5z M527.7,24.7c-1.5,0-2,0-3.4-0.1
	c7.6-5.3,12.7-10,17.1-15.8c4.9,6.4,9.6,10.7,17.2,15.8c-1.6,0.1-2.3,0.1-3.6,0.1H527.7L527.7,24.7z M528.5,48.2
	c-2.3,5.7-5.3,11.2-8.8,16.3c-4.2,0.2-6.7,0.3-7.2,0.3c-1.2,0-2.5-0.1-4.8-0.2l1.3,9.9c3.5-0.6,7.1-0.9,10.6-1.1
	c3.3-0.2,19.6-1.7,27.7-2.4c3-0.3,8-0.9,14.8-1.8c1.4,2,2.2,3.1,4.9,7.1l7.9-5.1c-5.7-7.8-12.1-15.1-19-21.7l-8.1,3.6
	c4.6,4.7,6,6.2,8.6,9c-11.5,1.2-11.5,1.2-26.1,2c3.4-5,6.2-10.3,8.6-15.8h28.3c3.2,0,6.4,0.1,9.6,0.5v-9.4c-3.2,0.4-6.4,0.5-9.6,0.5
	H516c-3.2,0-6.5-0.1-9.7-0.5v9.4c3.2-0.4,6.5-0.5,9.7-0.5L528.5,48.2L528.5,48.2z M626.5,69.8c-2.6-6.3-5.8-12.3-9.5-18l-6.9,2.9
	c1.3,1.9,2.5,4,3.5,6.1c-3.3,1.1-4.7,1.5-9.8,2.7V50.7H618c1.6,0,3.2,0.1,4.8,0.2c-0.2-1.7-0.2-3.5-0.2-6.6V29
	c-0.1-2.3,0-4.6,0.2-6.9c-2.2,0.3-4.3,0.4-6.5,0.3h-3.2v-2.6c0-1.4,0.1-2.8,0.3-4.2h-8.2c0.2,1.3,0.4,2.7,0.3,4.1v2.7h-4.4
	c-2.1,0-2.7,0-4.2-0.1c4.9-3.9,9.2-8.5,12.9-13.5c3.1,4.5,6.9,8.5,11.2,11.9c0.8-2.3,2.1-4.4,3.6-6.2v5c0,1.7-0.1,3.4-0.2,5.1h3.6
	c0.1,1.5,0.1,1.8,0.1,3.1v41.5c0,2.3-0.1,4.7-0.4,7h9V72h17.5v3.9h8.8c-0.3-2.4-0.4-4.8-0.3-7.2v-14c-0.1-2.1,0-4.3,0.2-6.4
	c-1.7,0.2-3.5,0.2-6.5,0.2h-19.8v-5.9h17.2c2.4,0,4.1,0.1,6.1,0.2c-0.2-2.1-0.3-4.1-0.2-6.2V24.7h5.7c-0.2-1.8-0.3-3.7-0.2-5.5V13
	c0-1.9,0.1-3.8,0.2-5.7c-2.7,0.3-5.3,0.4-8,0.4h-9V6.4c-0.1-1.9,0.1-3.8,0.4-5.7h-9.6c0.3,1.9,0.4,3.8,0.4,5.7v1.4h-8.3
	c-3.3,0-5-0.1-6.8-0.2c0.2,1.5,0.2,2.4,0.2,5c-5-3.7-8.9-7.9-11-11.7h-8.3c-1.6,3-3.7,5.8-6.2,8.1c-3,3-6.4,5.7-10.1,7.9
	c1.4,2.9,2.5,6,3,9.2c1.6-1.1,2.2-1.6,3.2-2.3c0.1,1.6,0.2,2.7,0.2,5v36.3c-1.8,0.3-3.5,0.6-5.3,0.7l2,8.9c2.1-0.7,4.2-1.3,6.4-1.7
	c6.2-1.4,12.3-3.2,18.3-5.3c0.7,1.6,1.3,3.3,2.3,6.2L626.5,69.8z M656.8,21.1c-1.5,0.1-2.1,0.1-3.5,0.1h-20.2v-5.7h23.7V21.1
	L656.8,21.1z M636.6,28.2h14.6v7.3h-14.6V28.2z M636.6,56h17.6v8.4h-17.6V56L636.6,56z M603.7,33.2V29h10.7v4.2H603.7L603.7,33.2z
	 M603.7,39.4h10.7V44h-10.7L603.7,39.4L603.7,39.4z"/>
<path id="Nasai_Civic_Hall" class="st0" d="M23.1,105c-0.1-0.1-0.2-0.1-0.3-0.1c0,0-0.1,0-0.3,0l-0.5,0l-0.5,0c-0.2,0-0.3,0-0.4,0
	s-0.2,0-0.4,0l-0.5,0l-0.5,0c-0.1,0-0.2,0-0.3,0c-0.1,0-0.2,0-0.3,0.1c0,0.1-0.1,0.2,0,0.4c0,0.8,0.1,1.8,0.1,2.9
	c0.1,1.1,0.1,2.2,0.1,3.4c0,1.2,0.1,2.4,0.1,3.6c0,1.2,0,2.3,0,3.4c0,0.3,0,0.5,0,0.7c0,0.1,0,0.2-0.1,0.3c-0.1,0-0.2-0.1-0.2-0.2
	c-0.1-0.1-0.2-0.3-0.3-0.5c-0.6-0.8-1.4-1.8-2.3-3s-1.8-2.4-2.8-3.7c-1-1.3-1.9-2.6-2.8-3.8c-0.9-1.2-1.7-2.4-2.5-3.3
	c-0.1-0.1-0.2-0.3-0.3-0.4c-0.1,0-0.1-0.1-0.2-0.1c-0.2,0-0.5,0-0.7,0.1c-0.3,0.1-0.6,0.1-0.8,0.1c-0.2,0-0.5,0-0.8,0
	c-0.3,0-0.5,0-0.7,0c-0.1,0-0.2,0-0.3,0.1c-0.1,0.1-0.1,0.2,0,0.4c0,0.1,0,0.3,0,0.7s0,0.9,0.1,1.5c0,0.6,0,1.3,0.1,2
	c0,0.7,0,1.5,0.1,2.2c0,0.7,0,1.4,0,2.1c0,0.6,0,1.2,0,1.5c0,0.4,0,0.9,0,1.5c0,0.6,0,1.3,0,1.9c0,0.7,0,1.4-0.1,2.1
	s-0.1,1.4-0.1,1.9s0,1.1-0.1,1.4c0,0.4,0,0.6,0,0.7c0,0.1,0,0.3,0,0.4c0.1,0.1,0.2,0.1,0.3,0.1c0.1,0,0.2,0,0.3,0l0.5,0l0.5,0
	c0.2,0,0.3,0,0.3,0c0.1,0,0.2,0,0.3,0l0.5,0c0.2,0,0.3,0,0.4,0s0.2,0,0.3,0c0.1,0,0.2,0,0.2-0.1c0.1-0.1,0.1-0.3,0.1-0.4
	c0-1.2,0-2.4-0.1-3.6s0-2.5,0-3.7c0-1.2,0-2.3,0-3.4s0-2.1,0-2.9c0-0.2,0-0.4,0-0.5c0-0.1,0.1-0.1,0.1-0.1c0.3,0.3,0.7,0.8,1.2,1.5
	c0.6,0.7,1.2,1.5,1.9,2.4c0.7,0.9,1.4,1.9,2.2,2.9s1.5,2,2.2,3c0.7,1,1.4,1.8,1.9,2.6s1,1.4,1.3,1.8c0.1,0.1,0.2,0.2,0.3,0.4
	c0.1,0.1,0.2,0.1,0.3,0.1c0.2,0,0.4,0,0.7,0s0.6,0,0.8,0c0.2,0,0.4,0,0.7,0s0.5,0,0.6,0c0.1,0,0.2,0,0.3-0.1c0.1-0.1,0.1-0.3,0-0.4
	c0-1.9-0.1-3.7-0.1-5.2v-4.4c0-0.4,0-1,0-1.7s0-1.4,0-2.1s0-1.5,0.1-2.2s0-1.4,0-2s0-1.1,0-1.5s0-0.6,0-0.7
	C23.1,105.3,23.1,105.1,23.1,105z M43.6,112l-0.6-0.1c-0.2-0.1-0.5-0.1-0.7-0.1c-0.1,0-0.2,0-0.3-0.1s-0.3,0-0.4-0.1
	c-0.1,0-0.3,0-0.4-0.1c-0.1,0-0.2,0-0.2,0c-0.1,0.1-0.1,0.1-0.1,0.2c-0.1,0.1-0.1,0.3-0.1,0.4c0,0.2-0.1,0.3-0.1,0.5
	s-0.1,0.3-0.1,0.4c0,0.3-0.1,0.4-0.2,0.3c-0.5-0.7-1.2-1.3-1.9-1.7c-0.8-0.5-1.8-0.7-2.8-0.7c-0.9,0-1.8,0.1-2.7,0.5
	c-0.8,0.3-1.5,0.8-2.2,1.4c-0.7,0.8-1.3,1.6-1.6,2.6c-0.4,1-0.6,2.1-0.6,3.1c0,0.9,0.2,1.9,0.5,2.8c0.3,0.9,0.8,1.7,1.5,2.4
	c0.6,0.6,1.3,1.1,2,1.6c0.8,0.4,1.8,0.6,2.7,0.6c0.5,0,0.9-0.1,1.4-0.2c0.4-0.1,0.8-0.3,1.2-0.5c0.4-0.2,0.7-0.4,1-0.7
	c0.3-0.3,0.6-0.5,0.9-0.8c0.1,0,0.2-0.1,0.3-0.1c0.1,0,0.2,0.1,0.2,0.2c0,0.3,0.1,0.6,0.1,0.9c0.1,0.3,0.1,0.6,0.2,0.9
	c0,0.1,0.2,0.2,0.4,0.1c0.1,0,0.3,0,0.6-0.1s0.5,0,0.6-0.1c0.2,0,0.4,0,0.6,0s0.4,0,0.5,0c0.1,0,0.3,0,0.3-0.2
	c0.1-0.2,0.1-0.3,0-0.5c0-0.3-0.1-0.6-0.1-1.1s-0.1-1-0.1-1.6c0-0.6-0.1-1.2-0.1-1.9c0-0.7,0-1.3,0-1.9c0-0.4,0-0.9,0-1.5
	c0-0.5,0.1-1.1,0.1-1.6c0.1-0.5,0.1-1,0.2-1.5c0.1-0.5,0.1-0.9,0.2-1.3C43.9,112.2,43.8,112.1,43.6,112L43.6,112L43.6,112z
	 M39.7,120.2c-0.2,0.5-0.5,1-0.9,1.4c-0.4,0.4-0.8,0.7-1.3,1c-0.5,0.2-1,0.3-1.5,0.3c-0.5,0-1.1-0.1-1.6-0.3c-0.5-0.2-0.9-0.6-1.3-1
	c-0.4-0.4-0.7-0.9-0.9-1.4c-0.4-1.1-0.4-2.4,0-3.5c0.2-0.5,0.5-1,0.9-1.4c0.4-0.4,0.8-0.7,1.3-1c0.5-0.2,1-0.4,1.6-0.3
	c0.5,0,1.1,0.1,1.6,0.3c0.5,0.2,0.9,0.6,1.3,1c0.4,0.4,0.7,0.9,0.8,1.4c0.2,0.6,0.3,1.2,0.3,1.8C40.1,119,40,119.6,39.7,120.2
	L39.7,120.2z M56.3,121.1c0-0.5-0.1-1-0.2-1.5c-0.2-0.5-0.4-0.9-0.7-1.3c-0.4-0.4-0.8-0.8-1.3-1c-0.6-0.3-1-0.6-1.3-0.8
	c-0.3-0.2-0.5-0.3-0.8-0.5c-0.1-0.1-0.3-0.3-0.3-0.5c-0.1-0.2-0.1-0.4,0-0.5c0-0.3,0.2-0.6,0.5-0.8c0.3-0.2,0.7-0.3,1.1-0.3
	c0.2,0,0.5-0.1,0.7-0.1s0.5,0,0.7-0.1c0.1,0,0.3-0.1,0.3-0.2c0,0,0-0.1,0-0.1c0-0.2-0.1-0.3-0.1-0.5c0-0.2-0.1-0.4-0.1-0.5
	c-0.1-0.2-0.1-0.4-0.2-0.7s-0.1-0.4-0.2-0.6c0-0.1-0.1-0.1-0.2-0.2c-0.1,0-0.2,0-0.3,0c-1.2-0.1-2.4,0.3-3.5,0.9
	c-0.8,0.5-1.4,1.4-1.7,2.3c-0.1,0.4-0.2,0.9-0.2,1.4c0,0.5,0.1,0.9,0.2,1.3c0.2,0.4,0.4,0.8,0.8,1.2c0.4,0.4,0.8,0.7,1.3,0.9
	c0.7,0.3,1.4,0.7,2,1.2c0.3,0.3,0.5,0.7,0.4,1.1c0,0.2-0.1,0.4-0.2,0.6c-0.1,0.2-0.3,0.3-0.4,0.4c-0.2,0.1-0.3,0.2-0.5,0.3
	c-0.2,0.1-0.3,0.1-0.5,0.1c-0.4,0.1-0.8,0.1-1.1,0.1c-0.3,0-0.7,0-1-0.1c-0.2,0-0.3,0.1-0.2,0.3c0,0.1,0,0.3,0.1,0.6s0,0.4,0.1,0.6
	s0,0.3,0,0.5c0,0.2,0,0.4,0,0.5c0,0.1,0,0.2,0.1,0.3c0.1,0.1,0.2,0.1,0.3,0.1c0.6,0.1,1.3,0.1,2,0c0.7-0.1,1.3-0.3,1.9-0.6
	c0.6-0.3,1.1-0.6,1.5-1c0.4-0.4,0.7-0.9,0.9-1.4C56.2,122.1,56.3,121.6,56.3,121.1L56.3,121.1z M75.7,112l-0.6-0.1
	c-0.2-0.1-0.5-0.1-0.7-0.1c-0.1,0-0.2,0-0.3-0.1s-0.3,0-0.4-0.1c-0.1,0-0.3,0-0.4-0.1c-0.1,0-0.2,0-0.2,0c-0.1,0.1-0.1,0.1-0.1,0.2
	c-0.1,0.1-0.1,0.3-0.1,0.4c0,0.2-0.1,0.3-0.1,0.5s-0.1,0.3-0.1,0.4c0,0.3-0.1,0.4-0.2,0.3c-0.5-0.7-1.2-1.3-1.9-1.7
	c-0.8-0.5-1.8-0.7-2.8-0.7c-0.9,0-1.8,0.1-2.7,0.5c-0.8,0.3-1.5,0.8-2.2,1.4c-0.7,0.8-1.3,1.6-1.6,2.6c-0.4,1-0.6,2.1-0.6,3.1
	c0,0.9,0.2,1.9,0.5,2.8c0.3,0.9,0.8,1.7,1.5,2.4c0.6,0.6,1.3,1.1,2,1.6c0.8,0.4,1.8,0.6,2.7,0.6c0.5,0,0.9-0.1,1.4-0.2
	c0.4-0.1,0.8-0.3,1.2-0.5c0.4-0.2,0.7-0.4,1-0.7c0.3-0.3,0.6-0.5,0.9-0.8c0.1,0,0.2-0.1,0.3-0.1c0.1,0,0.2,0.1,0.2,0.2
	c0,0.3,0.1,0.6,0.1,0.9c0.1,0.3,0.1,0.6,0.2,0.9c0,0.1,0.2,0.2,0.4,0.1c0.1,0,0.3,0,0.6-0.1s0.5,0,0.6-0.1c0.2,0,0.4,0,0.6,0
	c0.2,0,0.4,0,0.5,0c0.1,0,0.3,0,0.3-0.2c0.1-0.2,0.1-0.3,0-0.5c0-0.3-0.1-0.6-0.1-1.1s-0.1-1-0.1-1.6c0-0.6-0.1-1.2-0.1-1.9
	c0-0.7,0-1.3,0-1.9c0-0.4,0-0.9,0-1.5c0-0.5,0.1-1.1,0.1-1.6c0.1-0.5,0.1-1,0.2-1.5c0.1-0.5,0.1-0.9,0.2-1.3
	C75.9,112.2,75.9,112.1,75.7,112L75.7,112L75.7,112z M71.8,120.2c-0.2,0.5-0.5,1-0.9,1.4c-0.4,0.4-0.8,0.7-1.3,1
	c-0.5,0.2-1,0.3-1.5,0.3c-0.5,0-1.1-0.1-1.6-0.3c-0.5-0.2-0.9-0.6-1.3-1c-0.4-0.4-0.7-0.9-0.9-1.4c-0.4-1.1-0.4-2.4,0-3.5
	c0.2-0.5,0.5-1,0.9-1.4c0.4-0.4,0.8-0.7,1.3-1c0.5-0.2,1-0.4,1.6-0.3c0.5,0,1.1,0.1,1.6,0.3c0.5,0.2,0.9,0.6,1.3,1
	c0.4,0.4,0.7,0.9,0.8,1.4c0.2,0.6,0.3,1.2,0.3,1.8C72.1,119,72,119.6,71.8,120.2L71.8,120.2z M84.7,106.7c-0.4-0.4-0.9-0.6-1.5-0.5
	c-0.5,0-1.1,0.2-1.5,0.5c-0.4,0.3-0.6,0.8-0.6,1.3c0,0.5,0.2,1,0.5,1.3c0.4,0.4,1,0.6,1.5,0.5c0.6,0.1,1.2-0.1,1.6-0.5
	c0.3-0.4,0.5-0.8,0.4-1.3C85.3,107.5,85.1,107,84.7,106.7L84.7,106.7z M85.1,111.8c-0.1-0.1-0.1-0.1-0.2-0.1c-0.2,0-0.5,0-0.7,0.1
	c-0.3,0-0.6,0.1-0.9,0.1c-0.3,0-0.6,0-0.9-0.1c-0.2,0-0.5-0.1-0.7-0.1c-0.2,0-0.3,0-0.3,0.1c0,0.1,0,0.2,0,0.3c0,0.3,0,0.7,0.1,1.3
	c0,0.6,0.1,1.3,0.1,2c0,0.7,0.1,1.4,0.1,2s0,1.1,0,1.4c0,0.3,0,0.8,0,1.5c0,0.6,0,1.3,0,2c0,0.7,0,1.3,0,1.8v1.1
	c0,0.1,0,0.2,0.1,0.3c0.1,0,0.1,0.1,0.2,0.1c0.1,0,0.3,0,0.6,0c0.3,0,0.6,0,0.8,0s0.5,0,0.8,0c0.3,0,0.5,0,0.6,0
	c0.2,0,0.3-0.1,0.3-0.3c0,0,0,0,0,0c0-0.2,0-0.6,0-1.1s0-1.2,0-1.9s0-1.3,0-2s0-1.1,0-1.5c0-0.3,0-0.8,0-1.4c0-0.6,0-1.3,0.1-2
	s0.1-1.4,0.1-2c0-0.6,0.1-1.1,0.1-1.3C85.2,112,85.2,111.9,85.1,111.8L85.1,111.8z M117.7,121.5c-0.2-0.2-0.3-0.4-0.5-0.6
	s-0.3-0.4-0.4-0.6c-0.1-0.2-0.2-0.3-0.3-0.4c0-0.1-0.2-0.2-0.3-0.1c-0.1,0-0.2,0.1-0.2,0.2c-0.7,0.7-1.4,1.3-2.2,1.8
	c-0.9,0.5-1.9,0.8-2.9,0.8c-0.8,0-1.6-0.2-2.3-0.5c-0.7-0.3-1.4-0.8-1.9-1.4c-0.6-0.7-1-1.5-1.3-2.3c-0.3-1-0.5-2.1-0.5-3.2
	c0-1,0.1-2,0.4-3c0.3-0.8,0.7-1.6,1.2-2.3c0.5-0.6,1.2-1.1,1.9-1.5c0.8-0.4,1.6-0.5,2.5-0.5c1,0,2.1,0.3,3,0.8
	c0.4,0.2,0.7,0.5,1.1,0.8c0.3,0.3,0.6,0.6,1,1c0.1,0.1,0.2,0.1,0.3,0.2c0.1,0,0.2,0,0.3-0.1c0.1-0.2,0.3-0.3,0.3-0.5
	c0.1-0.2,0.2-0.4,0.4-0.6c0.1-0.2,0.2-0.4,0.4-0.6c0.1-0.2,0.2-0.4,0.3-0.6c0.1-0.1,0.1-0.2,0.1-0.3c0-0.2-0.1-0.4-0.2-0.5
	c-0.3-0.4-0.7-0.8-1.1-1.1c-0.4-0.4-0.9-0.7-1.4-1c-0.6-0.3-1.2-0.5-1.9-0.7c-0.8-0.2-1.7-0.3-2.5-0.3c-2.6,0-5.1,1.1-6.9,3
	c-0.9,1-1.6,2.1-2,3.4c-1,2.9-1,6,0,8.8c0.4,1.3,1.1,2.4,2,3.4c0.8,0.9,1.9,1.7,3,2.2c2.1,0.9,4.4,1,6.5,0.4c0.7-0.2,1.4-0.5,2-0.8
	c0.5-0.3,1-0.7,1.4-1.1c0.4-0.4,0.7-0.7,1-1.1c0.3-0.3,0.3-0.6,0.2-0.7C117.9,121.9,117.8,121.7,117.7,121.5z M126.1,106.7
	c-0.4-0.4-0.9-0.6-1.5-0.5c-0.5,0-1.1,0.2-1.5,0.5c-0.4,0.3-0.6,0.8-0.6,1.3c0,0.5,0.2,1,0.5,1.3c0.4,0.4,1,0.6,1.5,0.5
	c0.6,0.1,1.2-0.1,1.6-0.5c0.3-0.4,0.5-0.8,0.4-1.3C126.7,107.5,126.5,107,126.1,106.7L126.1,106.7z M126.6,111.8
	c-0.1-0.1-0.1-0.1-0.2-0.1c-0.2,0-0.5,0-0.7,0.1c-0.3,0-0.6,0.1-0.9,0.1c-0.3,0-0.6,0-0.9-0.1c-0.2,0-0.5-0.1-0.7-0.1
	c-0.2,0-0.3,0-0.3,0.1c0,0.1,0,0.2,0,0.3c0,0.3,0,0.7,0.1,1.3s0.1,1.3,0.1,2c0,0.7,0.1,1.4,0.1,2c0,0.6,0,1.1,0,1.4
	c0,0.3,0,0.8,0,1.5s0,1.3,0,2c0,0.7,0,1.3,0,1.8v1.1c0,0.1,0,0.2,0.1,0.3c0.1,0,0.1,0.1,0.2,0.1c0.1,0,0.3,0,0.6,0s0.6,0,0.8,0
	s0.5,0,0.8,0s0.5,0,0.6,0c0.2,0,0.3-0.1,0.3-0.3c0,0,0,0,0,0c0-0.2,0-0.6,0-1.1s0-1.2,0-1.9s0-1.3,0-2s0-1.1,0-1.5
	c0-0.3,0-0.8,0-1.4c0-0.6,0-1.3,0.1-2c0-0.7,0.1-1.4,0.1-2c0-0.6,0.1-1.1,0.1-1.3C126.6,112,126.6,111.9,126.6,111.8L126.6,111.8z
	 M145.1,114.5c0-0.4,0-0.7,0-1.1s0-0.7-0.1-0.9c0-0.3-0.1-0.5-0.1-0.6c0-0.1-0.1-0.2-0.1-0.2c-0.1,0-0.2,0-0.2,0c-0.1,0-0.3,0-0.6,0
	c-0.3,0-0.5,0-0.7,0h-0.3c-0.1,0-0.3,0-0.4,0s-0.3,0-0.4,0h-0.3c-0.2,0-0.2,0.1-0.2,0.4c0,0.1,0,0.3,0,0.5s0,0.5,0.1,0.8
	s0,0.6,0.1,0.8s0,0.5,0,0.6c0,0.3,0,0.7,0,1.2c0,0.4,0,0.9-0.1,1.3c-0.1,0.4-0.3,0.8-0.5,1.2c-0.3,0.5-0.6,1.1-1,1.6
	c-0.4,0.5-0.7,1-1,1.4c-0.1,0.2-0.3,0.4-0.5,0.6c-0.1-0.1-0.2-0.2-0.3-0.3c-0.2-0.2-0.4-0.4-0.6-0.7s-0.5-0.6-0.8-1
	s-0.5-0.7-0.7-1.1s-0.4-0.7-0.6-1c-0.1-0.2-0.2-0.5-0.3-0.8c0-0.3-0.1-0.7-0.1-1.2c0-0.5,0-0.9,0-1.2c0-0.3,0-0.8,0-1.3s0-1,0.1-1.5
	c0-0.1,0-0.2,0-0.2c-0.1-0.1-0.1-0.1-0.2-0.1h-0.3c-0.1,0-0.3,0-0.4,0s-0.3,0-0.4,0h-0.3c-0.1,0-0.2,0-0.3,0s-0.3,0-0.4,0
	s-0.3,0-0.4,0s-0.2,0-0.3,0c-0.1,0-0.2,0-0.2,0c-0.1,0.1-0.1,0.2-0.1,0.3c0,0.1,0,0.3,0,0.6c0,0.3,0,0.6,0,1s0,0.7,0,1.1s0,0.7,0,1
	s0,0.6,0,0.9s0,0.6,0.1,0.9s0.1,0.5,0.1,0.7c0,0.1,0.1,0.3,0.1,0.4c0.1,0.2,0.2,0.3,0.2,0.4c0.1,0.2,0.3,0.5,0.5,0.9
	c0.2,0.3,0.5,0.7,0.7,1.1c0.3,0.4,0.6,0.8,0.8,1.2c0.5,0.7,1.1,1.4,1.5,2s0.8,1,1,1.2c0.1,0.1,0.2,0.3,0.4,0.3
	c0.2,0.1,0.4,0.1,0.6,0.1c0.3,0,0.5,0,0.7,0c0.1,0,0.3,0,0.7,0c0.2,0,0.4,0,0.6-0.1c0.1,0,0.1-0.1,0.2-0.1c0.1,0,0.1-0.1,0.2-0.2
	c0.3-0.4,0.6-0.8,0.9-1.3s0.8-1,1.3-1.7c0.3-0.4,0.6-0.8,0.9-1.2c0.3-0.4,0.5-0.9,0.8-1.3c0.2-0.4,0.4-0.7,0.6-1
	c0.1-0.2,0.2-0.3,0.3-0.5c0-0.1,0-0.3,0.1-0.4c0-0.2,0-0.4,0-0.7c0-0.3,0-0.5,0-0.8v-0.9C145.1,115.2,145.1,114.9,145.1,114.5
	L145.1,114.5z M153.8,106.7c-0.4-0.4-0.9-0.6-1.5-0.5c-0.5,0-1.1,0.2-1.5,0.5c-0.4,0.3-0.6,0.8-0.6,1.3c0,0.5,0.2,1,0.5,1.3
	c0.4,0.4,1,0.6,1.5,0.5c0.6,0.1,1.2-0.1,1.6-0.5c0.3-0.4,0.5-0.8,0.4-1.3C154.4,107.5,154.1,107,153.8,106.7L153.8,106.7z
	 M154.2,111.8c-0.1-0.1-0.1-0.1-0.2-0.1c-0.2,0-0.5,0-0.7,0.1c-0.3,0-0.6,0.1-0.9,0.1c-0.3,0-0.6,0-0.9-0.1c-0.2,0-0.5-0.1-0.7-0.1
	c-0.2,0-0.3,0-0.3,0.1c0,0.1,0,0.2,0,0.3c0,0.3,0,0.7,0.1,1.3c0,0.6,0.1,1.3,0.1,2c0,0.7,0.1,1.4,0.1,2c0,0.6,0,1.1,0,1.4
	c0,0.3,0,0.8,0,1.5c0,0.6,0,1.3,0,2c0,0.7,0,1.3,0,1.8v1.1c0,0.1,0,0.2,0.1,0.3c0.1,0,0.1,0.1,0.2,0.1c0.1,0,0.3,0,0.6,0
	s0.6,0,0.8,0s0.5,0,0.8,0s0.5,0,0.6,0c0.2,0,0.3-0.1,0.3-0.3c0,0,0,0,0,0c0-0.2,0-0.6,0-1.1s0-1.2,0-1.9s0-1.3,0-2s0-1.1,0-1.5
	c0-0.3,0-0.8,0-1.4c0-0.6,0-1.3,0.1-2c0-0.7,0.1-1.4,0.1-2s0.1-1.1,0.1-1.3C154.2,112,154.2,111.9,154.2,111.8L154.2,111.8z
	 M170.5,112.1c-0.1-0.1-0.2-0.1-0.3-0.2c-0.5-0.3-1.1-0.5-1.6-0.7c-0.7-0.2-1.4-0.3-2.2-0.3c-1,0-1.9,0.2-2.8,0.6
	c-1.8,0.8-3.1,2.2-3.8,4c-0.4,0.9-0.6,1.9-0.5,3c0,1,0.2,2.1,0.6,3c0.4,0.9,0.9,1.7,1.6,2.4c0.7,0.7,1.4,1.2,2.3,1.6
	c0.9,0.4,1.8,0.6,2.8,0.6c0.7,0,1.4-0.1,2.1-0.3c0.5-0.1,0.9-0.3,1.4-0.6c0.1-0.1,0.3-0.1,0.4-0.2c0.1-0.1,0.1-0.2,0-0.3
	c0-0.1,0-0.3-0.1-0.6c0-0.2-0.1-0.4-0.1-0.6c-0.1-0.2-0.1-0.4-0.1-0.6c0-0.3-0.1-0.5-0.1-0.6c-0.1-0.2-0.2-0.3-0.4-0.1
	c-0.3,0.2-0.6,0.4-1,0.6c-0.5,0.2-1.1,0.3-1.7,0.3c-0.5,0-1-0.1-1.5-0.3c-0.5-0.2-1-0.5-1.4-0.9c-0.4-0.4-0.8-0.9-1-1.4
	c-0.3-0.6-0.4-1.3-0.4-1.9c0-0.7,0.1-1.3,0.4-1.9c0.2-0.5,0.6-1,1-1.4c0.4-0.4,0.9-0.7,1.4-0.9c0.5-0.2,1-0.3,1.5-0.3
	c0.9,0,1.9,0.3,2.6,0.8c0.2,0.1,0.3,0.1,0.4-0.1c0.1-0.2,0.1-0.3,0.2-0.5c0.1-0.2,0.1-0.4,0.2-0.6c0-0.1,0.1-0.3,0.2-0.6
	c0.1-0.2,0.1-0.4,0.1-0.6C170.5,112.3,170.5,112.2,170.5,112.1L170.5,112.1z M204.6,124.4c0-0.4,0-0.9-0.1-1.4s0-1.2-0.1-1.9
	c0-0.7-0.1-1.4-0.1-2.1s0-1.3,0-2c0-0.6,0-1.1,0-1.5s0-0.9,0-1.5s0-1.3,0-2.1s0-1.5,0.1-2.2s0-1.4,0.1-2s0-1.1,0.1-1.5s0-0.6,0-0.7
	c0-0.1,0-0.3,0-0.4c-0.1-0.1-0.2-0.1-0.3-0.1c0,0-0.1,0-0.3,0l-0.5,0l-0.5,0c-0.2,0-0.3,0-0.4,0s-0.2,0-0.4,0l-0.5,0
	c-0.2,0-0.3,0-0.5,0s-0.2,0-0.3,0c-0.1,0-0.2,0-0.3,0.1c0,0.1-0.1,0.3,0,0.4c0,0.1,0,0.3,0,0.6s0,0.8,0,1.3c0,0.5,0,1.1,0,1.7
	s0,1.2,0,1.7c0,0.5,0,1,0,1.3s0,0.6,0,0.6c0,0.1,0,0.3,0,0.4c0,0.1-0.2,0.2-0.3,0.2c0,0-0.2,0-0.5,0s-0.6,0-1,0s-0.8,0-1.2,0
	s-0.8,0-1.2,0s-0.7,0-1,0s-0.4,0-0.5,0c-0.1,0-0.4,0-0.9,0s-1.1,0-1.7,0c-0.6,0-1.2,0-1.7,0c-0.5,0-0.8,0-0.9,0
	c-0.1,0-0.2-0.1-0.3-0.2c0-0.1-0.1-0.3,0-0.5c0-0.1,0-0.3,0-0.6s0-0.8,0-1.3c0-0.5,0-1.1,0-1.7c0-0.6,0-1.2,0-1.7c0-0.5,0-0.9,0-1.3
	s0-0.6,0-0.6c0-0.1,0-0.3,0-0.4c-0.1-0.1-0.2-0.1-0.3-0.1c0,0-0.1,0-0.3,0l-0.5,0l-0.5,0c-0.2,0-0.3,0-0.4,0c-0.1,0-0.2,0-0.4,0
	l-0.5,0c-0.2,0-0.3,0-0.5,0s-0.2,0-0.3,0c-0.1,0-0.2,0-0.3,0.1c0,0.1-0.1,0.3,0,0.4c0,0.1,0,0.3,0,0.7s0,0.9,0.1,1.5
	c0,0.6,0,1.3,0.1,2s0.1,1.5,0.1,2.2c0,0.7,0,1.4,0,2.1s0,1.2,0,1.5c0,0.4,0,0.9,0,1.5s0,1.3,0,1.9c0,0.7,0,1.4-0.1,2.1
	c0,0.7-0.1,1.3-0.1,1.9c0,0.6,0,1.1-0.1,1.4c0,0.4,0,0.6,0,0.6c0,0.1,0,0.3,0,0.4c0.1,0.1,0.2,0.1,0.3,0.1c0,0,0.1,0,0.3,0l0.5,0
	l0.5,0c0.2,0,0.3,0,0.4,0s0.2,0,0.4,0l0.5,0l0.5,0c0.2,0,0.3,0,0.3,0c0.1,0,0.2,0,0.3-0.1c0.1-0.1,0.1-0.3,0.1-0.4
	c0-0.1,0-0.3,0-0.7c0-0.4,0-0.9,0-1.4s0-1.2,0-1.8s0-1.2,0-1.8s0-1,0-1.4s0-0.6,0-0.7c0-0.4,0.1-0.6,0.3-0.7c0,0,0.2,0,0.5,0
	s0.6,0,1,0s0.8,0,1.2,0s0.8,0,1.2,0s0.7,0,0.9,0l0.3,0l0.7,0c0.5,0,1.1,0,1.7,0c0.6,0,1.2,0,1.8,0c0.5,0,0.8,0,0.9,0
	c0.1,0,0.2,0.1,0.3,0.2c0,0.2,0,0.3,0,0.5c0,0.1,0,0.3,0,0.7s0,0.9,0,1.4c0,0.6,0,1.2,0,1.8s0,1.2,0,1.8s0,1,0,1.4s0,0.6,0,0.7
	c0,0.1,0,0.3,0,0.4c0.1,0.1,0.2,0.1,0.3,0.1c0.1,0,0.2,0,0.3,0s0.3,0,0.5,0l0.5,0c0.2,0,0.3,0,0.4,0c0.1,0,0.2,0,0.3,0l0.5,0
	c0.2,0,0.3,0,0.5,0s0.2,0,0.3,0c0.1,0,0.3,0,0.4-0.1c0.1-0.1,0.1-0.3,0-0.4C204.7,125,204.7,124.8,204.6,124.4L204.6,124.4z
	 M225.2,112l-0.6-0.1c-0.2-0.1-0.5-0.1-0.7-0.1c-0.1,0-0.2,0-0.3-0.1s-0.3,0-0.4-0.1c-0.1,0-0.3,0-0.4-0.1c-0.1,0-0.2,0-0.2,0
	c-0.1,0.1-0.1,0.1-0.1,0.2c-0.1,0.1-0.1,0.3-0.1,0.4c0,0.2-0.1,0.3-0.1,0.5s-0.1,0.3-0.1,0.4c0,0.3-0.1,0.4-0.2,0.3
	c-0.5-0.7-1.2-1.3-1.9-1.7c-0.8-0.5-1.8-0.7-2.8-0.7c-0.9,0-1.8,0.1-2.7,0.5c-0.8,0.3-1.5,0.8-2.2,1.4c-0.7,0.8-1.3,1.6-1.6,2.6
	c-0.4,1-0.6,2.1-0.6,3.1c0,0.9,0.2,1.9,0.5,2.8c0.3,0.9,0.8,1.7,1.5,2.4c0.6,0.6,1.3,1.1,2,1.6c0.8,0.4,1.8,0.6,2.7,0.6
	c0.5,0,0.9-0.1,1.4-0.2c0.4-0.1,0.8-0.3,1.2-0.5c0.4-0.2,0.7-0.4,1-0.7c0.3-0.3,0.6-0.5,0.9-0.8c0.1,0,0.2-0.1,0.3-0.1
	c0.1,0,0.2,0.1,0.2,0.2c0,0.3,0.1,0.6,0.1,0.9c0.1,0.3,0.1,0.6,0.2,0.9c0,0.1,0.2,0.2,0.4,0.1c0.1,0,0.3,0,0.6-0.1s0.5,0,0.6-0.1
	c0.2,0,0.4,0,0.6,0c0.2,0,0.4,0,0.5,0c0.1,0,0.3,0,0.3-0.2c0.1-0.2,0.1-0.3,0-0.5c0-0.3-0.1-0.6-0.1-1.1c0-0.5-0.1-1-0.1-1.6
	c0-0.6-0.1-1.2-0.1-1.9c0-0.7,0-1.3,0-1.9c0-0.4,0-0.9,0-1.5c0-0.5,0.1-1.1,0.1-1.6c0.1-0.5,0.1-1,0.2-1.5c0.1-0.5,0.1-0.9,0.2-1.3
	C225.4,112.2,225.3,112.1,225.2,112L225.2,112L225.2,112z M221.3,120.2c-0.2,0.5-0.5,1-0.9,1.4c-0.4,0.4-0.8,0.7-1.3,1
	c-0.5,0.2-1,0.3-1.5,0.3c-0.5,0-1.1-0.1-1.6-0.3c-0.5-0.2-0.9-0.6-1.3-1c-0.4-0.4-0.7-0.9-0.9-1.4c-0.4-1.1-0.4-2.4,0-3.5
	c0.2-0.5,0.5-1,0.9-1.4c0.4-0.4,0.8-0.7,1.3-1c0.5-0.2,1-0.4,1.6-0.3c0.5,0,1.1,0.1,1.6,0.3c0.5,0.2,0.9,0.6,1.3,1
	c0.4,0.4,0.7,0.9,0.8,1.4c0.2,0.6,0.3,1.2,0.3,1.8C221.6,119,221.5,119.6,221.3,120.2L221.3,120.2z M234.6,105
	c-0.1-0.1-0.2-0.1-0.2-0.1c-0.2,0-0.4,0-0.7,0s-0.6,0-0.9,0c-0.3,0-0.6,0-0.9,0s-0.6,0-0.7-0.1c-0.1,0-0.2,0-0.3,0.1
	c0,0.1,0,0.2,0,0.3c0,0.2,0,0.5,0,0.9c0,0.5,0,1,0.1,1.7s0,1.3,0.1,2s0.1,1.4,0.1,2s0,1.2,0,1.7s0,0.8,0,1v1.2c0,0.6,0,1.3,0,2
	s0,1.5,0,2.4c0,0.8,0,1.6,0,2.3c0,0.7,0,1.3,0,1.8v0.8c0,0.1,0,0.2,0.1,0.3c0.1,0,0.1,0.1,0.2,0c0.2,0,0.4,0,0.6,0
	c0.3,0,0.6,0,0.8,0s0.5,0,0.8,0s0.5,0,0.6,0c0.2,0,0.2-0.1,0.2-0.3c0-0.1,0-0.4,0-0.9s0-1.1,0-1.8c0-0.7,0-1.5,0-2.3
	c0-0.8,0-1.6,0-2.4c0-0.7,0-1.4,0-2c0-0.6,0-1,0-1.2s0-0.5,0-1s0-1.1,0-1.7s0-1.3,0.1-2s0.1-1.4,0.1-2s0-1.2,0.1-1.7s0-0.8,0.1-1
	C234.6,105.2,234.6,105.1,234.6,105L234.6,105z M244.2,105c-0.1-0.1-0.2-0.1-0.2-0.1c-0.2,0-0.4,0-0.7,0c-0.3,0-0.6,0-0.9,0
	c-0.3,0-0.6,0-0.9,0c-0.3,0-0.6,0-0.7-0.1c-0.1,0-0.2,0-0.3,0.1c0,0.1,0,0.2,0,0.3c0,0.2,0,0.5,0,0.9c0,0.5,0,1,0.1,1.7
	c0,0.6,0,1.3,0.1,2c0,0.7,0.1,1.4,0.1,2c0,0.6,0,1.2,0,1.7s0,0.8,0,1v1.2c0,0.6,0,1.3,0,2s0,1.5,0,2.4c0,0.8,0,1.6,0,2.3
	c0,0.7,0,1.3,0,1.8v0.8c0,0.1,0,0.2,0.1,0.3c0.1,0,0.1,0.1,0.2,0c0.2,0,0.4,0,0.6,0c0.3,0,0.6,0,0.8,0s0.5,0,0.8,0
	c0.3,0,0.5,0,0.6,0c0.2,0,0.2-0.1,0.2-0.3c0-0.1,0-0.4,0-0.9s0-1.1,0-1.8c0-0.7,0-1.5,0-2.3c0-0.8,0-1.6,0-2.4c0-0.7,0-1.4,0-2
	s0-1,0-1.2c0-0.2,0-0.5,0-1s0-1.1,0-1.7c0-0.6,0-1.3,0.1-2s0.1-1.4,0.1-2c0-0.6,0-1.2,0.1-1.7s0-0.8,0.1-1
	C244.2,105.2,244.2,105.1,244.2,105L244.2,105z"/>
</svg>
