<?xml version="1.0" encoding="utf-8"?>
<!-- Generator: Adobe Illustrator 25.2.0, SVG Export Plug-In . SVG Version: 6.00 Build 0)  -->
<svg version="1.1" id="レイヤー_1" xmlns="http://www.w3.org/2000/svg" xmlns:xlink="http://www.w3.org/1999/xlink" x="0px"
	 y="0px" viewBox="0 0 704.2 55.8" style="enable-background:new 0 0 704.2 55.8;" xml:space="preserve">
<style type="text/css">
	.st0{fill-rule:evenodd;clip-rule:evenodd;fill:#FFFFFF;}
</style>
<path id="main-copy.svg" class="st0" d="M0,54.4h10.4V19.6l23.3,34.8h10V1.3H33.3v35L10,1.3H0L0,54.4L0,54.4z M53.6,54.4h10.8
	l4.4-10.9H91l4.3,10.9H106L85.1,1.3H74.6L53.6,54.4z M87.2,33.6H72.6l7.3-18.2L87.2,33.6z M156,2.6c-4.2-1.7-8.7-2.6-13.3-2.6
	c-9.1,0-16.4,3.1-22.1,9.3c-4.7,5-7.2,11.5-7.1,18.3c0,5,1.3,10,3.9,14.3c2.5,4.3,6.1,7.9,10.5,10.2c4.7,2.5,9.9,3.7,15.1,3.6
	c4.8,0.1,9.6-1,13.8-3.3c8.1-4.7,13.2-13.4,13.3-22.7l-0.1-2.2h-27.4V37h15.8c-1.3,2.8-3.3,5.2-5.9,6.9c-2.8,1.5-5.9,2.3-9.1,2.2
	c-5.2,0.1-10.2-1.8-13.9-5.3c-3.7-3.3-5.7-8.1-5.6-13c-0.1-4.8,1.9-9.4,5.4-12.6c3.6-3.5,8.5-5.3,13.5-5.2c6.2,0,12,2.6,16.2,7.1
	l7.3-7C163.4,6.8,159.9,4.3,156,2.6L156,2.6L156,2.6z M177.1,54.4h10.8l4.4-10.9h22.2l4.3,10.9h10.8L208.7,1.3h-10.5L177.1,54.4z
	 M210.7,33.6h-14.6l7.3-18.2L210.7,33.6z M238.8,54.4h10.3V1.3h-10.3V54.4L238.8,54.4z M326.6,2.9c-4.3-2-9-3-13.8-2.9
	c-8.4,0-15.4,2.7-21,8c-5.5,5-8.5,12.2-8.4,19.6c-0.2,7,2.3,13.7,6.9,18.9c5.5,6.2,13,9.3,22.5,9.3c4.7,0.1,9.3-0.9,13.6-2.8
	c4-1.8,7.4-4.4,10.2-7.8l-4.3-3.2c-4.7,5.6-11.8,8.9-19.1,8.7c-6.9,0-12.7-2.2-17.2-6.5c-4.5-4.2-7-10.1-6.8-16.2
	c-0.2-8.3,4.4-15.9,11.7-19.8c3.7-2,7.9-3.1,12.1-3.1c3.8,0,7.5,0.8,10.9,2.3c3.3,1.6,6.3,3.9,8.5,6.8l4.3-3.2
	C334,7.6,330.6,4.8,326.6,2.9L326.6,2.9z M348.7,54.4h5.4V1.3h-5.4V54.4L348.7,54.4z M387.7,54.4h1.2l23.7-53.1h-5.9l-18.3,41
	l-18.1-41h-5.9L387.7,54.4z M422.9,54.4h5.4V1.3h-5.4V54.4L422.9,54.4z M483.3,2.9c-4.3-2-9-3-13.8-2.9c-8.4,0-15.4,2.7-21,8
	c-5.5,5-8.5,12.2-8.4,19.6c-0.2,7,2.3,13.7,6.9,18.9c5.5,6.2,13,9.3,22.5,9.3c4.7,0.1,9.3-0.9,13.6-2.8c4-1.8,7.4-4.4,10.2-7.8
	l-4.3-3.2c-4.7,5.6-11.8,8.9-19.1,8.7c-6.9,0-12.7-2.2-17.2-6.5c-4.5-4.2-7-10.1-6.8-16.2c-0.2-8.3,4.4-15.9,11.7-19.8
	c3.7-2,7.9-3.1,12.1-3.1c3.8,0,7.5,0.8,10.9,2.3c3.3,1.6,6.3,3.9,8.5,6.8l4.3-3.2C490.8,7.6,487.3,4.8,483.3,2.9z M529.1,54.4h5.4
	V28.8h27.7v25.6h5.4V1.3h-5.4v22.3h-27.7V1.3h-5.4L529.1,54.4L529.1,54.4z M603.8,1.3L578,54.4h6.1l8.5-17.5H616l8.6,17.5h5.9
	L605.1,1.3H603.8z M613.7,31.8h-18.6l9.3-19.2L613.7,31.8z M640.8,54.4h26.4v-5.1h-21v-48h-5.4L640.8,54.4L640.8,54.4z M677.7,54.4
	h26.4v-5.1h-21v-48h-5.4L677.7,54.4L677.7,54.4z"/>
</svg>
