<?xml version="1.0" encoding="utf-8"?>
<!-- Generator: Adobe Illustrator 18.1.0, SVG Export Plug-In . SVG Version: 6.00 Build 0)  -->
<!DOCTYPE svg PUBLIC "-//W3C//DTD SVG 1.1//EN" "http://www.w3.org/Graphics/SVG/1.1/DTD/svg11.dtd">
<svg version="1.1" xmlns="http://www.w3.org/2000/svg" xmlns:xlink="http://www.w3.org/1999/xlink" x="0px" y="0px"
	 viewBox="0 0 36 16" enable-background="new 0 0 36 16" xml:space="preserve">
<g id="長方形_1_のコピー_2_1_" enable-background="new    ">
	<g id="長方形_1_のコピー_2">
		<g>
			<rect fill-rule="evenodd" clip-rule="evenodd" fill="#2B579A" width="36" height="16"/>
		</g>
	</g>
</g>
<g id="Word_のコピー_1_" enable-background="new    ">
	<g id="Word_のコピー">
		<g>
			<path fill="#FFFEFE" d="M12,8.2c-0.1,0.8-0.2,1.7-0.4,2.6h-0.1c-0.2-0.9-0.3-1.8-0.5-2.6l-0.9-4H8.7l-0.9,4
				C7.6,9,7.4,9.9,7.3,10.8h0C7.1,9.9,7,9,6.8,8.2l-0.6-4H4.5l1.6,8.1h2l0.9-4C9.1,7.7,9.2,7,9.3,6.4h0C9.5,7,9.6,7.7,9.7,8.3l0.9,4
				h2l1.5-8.1h-1.6L12,8.2z M17.1,6c-1.5,0-3,1.2-3,3.2c0,2,1.4,3.2,3,3.2s3-1.2,3-3.2C20.1,7.2,18.7,6,17.1,6z M17.1,11.2
				c-0.8,0-1.3-0.7-1.3-1.9c0-1.2,0.5-1.9,1.3-1.9s1.3,0.8,1.3,1.9C18.5,10.4,18,11.2,17.1,11.2z M22.5,7.3L22.5,7.3l-0.2-1.1h-1.3
				v6.2h1.6V8.7c0.4-0.9,0.9-1.2,1.4-1.2c0.3,0,0.4,0,0.6,0.1L25,6.2C24.8,6.1,24.6,6,24.3,6C23.6,6,23,6.5,22.5,7.3z M29.2,3.6v2.2
				l0.1,1C28.9,6.3,28.4,6,27.7,6c-1.3,0-2.6,1.2-2.6,3.2c0,2,1,3.2,2.5,3.2c0.6,0,1.3-0.4,1.7-0.8h0l0.1,0.6h1.3V3.6H29.2z
				 M29.2,10.5c-0.4,0.5-0.7,0.6-1.1,0.6c-0.8,0-1.3-0.6-1.3-1.9c0-1.2,0.6-1.9,1.3-1.9c0.4,0,0.8,0.1,1.1,0.5V10.5z"/>
		</g>
	</g>
</g>
</svg>
