<?xml version="1.0" encoding="utf-8"?>
<!-- Generator: Adobe Illustrator 18.1.0, SVG Export Plug-In . SVG Version: 6.00 Build 0)  -->
<!DOCTYPE svg PUBLIC "-//W3C//DTD SVG 1.1//EN" "http://www.w3.org/Graphics/SVG/1.1/DTD/svg11.dtd">
<svg version="1.1" id="PDF_1_" xmlns="http://www.w3.org/2000/svg" xmlns:xlink="http://www.w3.org/1999/xlink" x="0px" y="0px"
	 viewBox="0 0 36 16" enable-background="new 0 0 36 16" xml:space="preserve">
<g id="長方形_1_のコピー_3">
	<g>
		<rect fill-rule="evenodd" clip-rule="evenodd" fill="#CC0000" width="36" height="16"/>
	</g>
</g>
<g id="PDF_のコピー">
	<g>
		<path fill="#FFFEFE" d="M11,4.2H8.3v8.1H10V9.4h1.1c1.7,0,3.1-0.8,3.1-2.7C14.2,4.8,12.8,4.2,11,4.2z M10.9,8.2h-1V5.5h0.9
			c1.1,0,1.7,0.3,1.7,1.3C12.6,7.7,12.1,8.2,10.9,8.2z M16.9,4.2h-2.2v8.1H17c2.4,0,3.9-1.4,3.9-4.1C20.9,5.5,19.4,4.2,16.9,4.2z
			 M16.8,11h-0.5V5.5h0.5c1.5,0,2.5,0.7,2.5,2.7C19.3,10.2,18.3,11,16.8,11z M27.2,5.5V4.2h-5v8.1h1.6V9h2.9V7.7h-2.9V5.5H27.2z"/>
	</g>
</g>
</svg>
