<?xml version="1.0" encoding="utf-8"?>
<!-- Generator: Adobe Illustrator 18.1.0, SVG Export Plug-In . SVG Version: 6.00 Build 0)  -->
<!DOCTYPE svg PUBLIC "-//W3C//DTD SVG 1.1//EN" "http://www.w3.org/Graphics/SVG/1.1/DTD/svg11.dtd">
<svg version="1.1" id="Excel_1_" xmlns="http://www.w3.org/2000/svg" xmlns:xlink="http://www.w3.org/1999/xlink" x="0px" y="0px"
	 viewBox="0 0 36 16" enable-background="new 0 0 36 16" xml:space="preserve">
<g id="長方形_1_のコピー_3">
	<g>
		<rect fill-rule="evenodd" clip-rule="evenodd" fill="#217346" width="36" height="16"/>
	</g>
</g>
<g id="Excel_のコピー">
	<g>
		<path fill="#FFFEFE" d="M7,8.8h2.9V7.4H7V5.5h3.4V4.2h-5v8.1h5.1V11H7V8.8z M16.8,6.2h-1.7l-0.5,1.1c-0.1,0.3-0.3,0.7-0.5,1h0
			c-0.2-0.3-0.4-0.7-0.6-1L13,6.2h-1.7L13,9.1l-1.9,3.2h1.7l0.6-1.1c0.2-0.4,0.3-0.7,0.5-1.1h0.1c0.2,0.4,0.4,0.7,0.6,1.1l0.7,1.1
			H17l-1.9-3L16.8,6.2z M19.9,11.2c-0.9,0-1.5-0.7-1.5-1.9c0-1.2,0.6-1.9,1.6-1.9c0.4,0,0.6,0.1,0.9,0.4l0.8-1
			c-0.5-0.4-1-0.7-1.8-0.7c-1.7,0-3.1,1.2-3.1,3.2c0,2,1.3,3.2,3,3.2c0.7,0,1.4-0.2,2-0.7l-0.6-1.1C20.8,11,20.4,11.2,19.9,11.2z
			 M24.9,6c-1.5,0-2.9,1.2-2.9,3.2c0,2,1.3,3.2,3.1,3.2c0.8,0,1.6-0.3,2.2-0.7l-0.6-1c-0.4,0.3-0.9,0.4-1.4,0.4
			c-0.9,0-1.6-0.5-1.7-1.5h3.8c0-0.1,0.1-0.4,0.1-0.7C27.5,7.3,26.6,6,24.9,6z M23.6,8.6c0.1-0.9,0.7-1.4,1.3-1.4
			c0.8,0,1.2,0.5,1.2,1.4H23.6z M30.1,11.1c-0.1,0-0.2,0-0.2,0c-0.2,0-0.3-0.1-0.3-0.5V3.6H28v7.1c0,1.1,0.4,1.9,1.5,1.9
			c0.4,0,0.6-0.1,0.8-0.1L30.1,11.1z"/>
	</g>
</g>
</svg>
